<svg xmlns="http://www.w3.org/2000/svg" id="Group_2929" width="655.473" height="690.757" data-name="Group 2929" viewBox="0 0 655.473 690.757">
    <defs>
        <style>
            .cls-1{fill:#1e079d}.cls-2,.cls-7{fill:none}.cls-3{opacity:.37}.cls-4{fill:#87aedd}.cls-5{fill:#58affb}.cls-6{fill:#003783}.cls-7{stroke:#16c5dc;stroke-miterlimit:10;stroke-width:1.989px}.cls-8{fill:#ff4272}.cls-9{fill:#212973}.cls-10{fill:#7baeff}.cls-11{opacity:.53}.cls-12{isolation:isolate}.cls-13{fill:#ce7c56}.cls-14{fill:#ffbe3d}.cls-15{fill:#e2a029}.cls-16{fill:#2670d4}.cls-17,.cls-54{fill:#2689fd}.cls-18{fill:#cc096a}.cls-19{fill:#ee2c6a}.cls-20{fill:#5b5bd6}.cls-21{fill:#b391ff}.cls-22{fill:#7974f5}.cls-23{fill:#382747}.cls-24{fill:#535e6d}.cls-25{fill:#636f82}.cls-26{fill:#e2edff}.cls-27{fill:#e16b40}.cls-28{fill:#455baf}.cls-29{fill:#e1e8f2}.cls-30{fill:#ff8654}.cls-31{fill:#ff9f75}.cls-32{fill:#cfdae4}.cls-33{fill:#00a5ff}.cls-34{fill:#4d2c63}.cls-35{fill:url(#linear-gradient)}.cls-36,.cls-45{fill:url(#linear-gradient-2)}.cls-37{fill:#00265a}.cls-38{fill:#002f71}.cls-39{fill:#002a65}.cls-40{fill:#00357f}.cls-41{fill:#001e46}.cls-42{fill:#0046a6}.cls-43{fill:#4da5dc}.cls-44{fill:#5155d4}.cls-45{opacity:.76}.cls-46{fill:#eaeeee}.cls-47{fill:#adcdfc}.cls-48{fill:#c7d8f2}.cls-49{fill:#ea9273}.cls-50{fill:#fff}.cls-51{fill:#94a3c0}.cls-52{fill:#616d7f}.cls-53{fill:#6d7b93}.cls-54{opacity:.54}.cls-55{fill:#93513f}.cls-56{fill:#a55d46}.cls-57{fill:#16c5dc}.cls-58{fill:#f2f8fd}.cls-59{fill:#7cccff}.cls-60{fill:#bb4f23}.cls-61{clip-path:url(#clip-path)}.cls-62{fill:#88630a}.cls-63{clip-path:url(#clip-path-2)}.cls-64{fill:#113c7a}.cls-65{clip-path:url(#clip-path-3)}.cls-66{fill:#ff5668}.cls-67{fill:#d4d9df}.cls-68{clip-path:url(#clip-path-4)}
        </style>
        <linearGradient id="linear-gradient" x1=".5" x2=".5" y2="1" gradientUnits="objectBoundingBox">
            <stop offset="0" stop-color="#4affc7"/>
            <stop offset="1" stop-color="#3badea"/>
        </linearGradient>
        <linearGradient id="linear-gradient-2" x1=".5" x2=".5" y2="1" gradientUnits="objectBoundingBox">
            <stop offset="0" stop-color="#ffdfb9"/>
            <stop offset="1" stop-color="#e83155"/>
        </linearGradient>
        <clipPath id="clip-path">
            <path id="Path_9675" d="M170.694 283.432l.033 5.2c-.005-1.766 1.161 3.031 3.495 1.683l-.033-11.483c-2.334 1.354-3.5 2.835-3.495 4.6z" class="cls-1" data-name="Path 9675" transform="translate(-170.694 -278.837)"/>
        </clipPath>
        <clipPath id="clip-path-2">
            <path id="Path_9681" d="M166.169 284.944l.033 7.789a32.184 32.184 0 0 0 15.837 3.806l-.033-7.789a32.185 32.185 0 0 1-15.837-3.806z" class="cls-2" data-name="Path 9681" transform="translate(-166.169 -284.944)"/>
        </clipPath>
        <clipPath id="clip-path-3">
            <path id="Path_9685" d="M176.394 289.287l-.033-11.77c.009 3.345-2.2 6.7-6.621 9.251a32.457 32.457 0 0 1-15.882 3.8l.033 12.115a32.457 32.457 0 0 0 15.883-3.8c4.421-2.553 6.626-6.249 6.62-9.596z" class="cls-2" data-name="Path 9685" transform="translate(-153.858 -277.517)"/>
        </clipPath>
        <clipPath id="clip-path-4">
            <path id="Path_9691" d="M253.4 228.952l-.005-1.963a3.293 3.293 0 0 1-.333 1.406l.006 1.963a3.268 3.268 0 0 0 .332-1.406z" class="cls-2" data-name="Path 9691" transform="translate(-253.065 -226.989)"/>
        </clipPath>
    </defs>
    <g id="Group_2734" data-name="Group 2734" transform="translate(143.074 361.228)">
        <g id="Group_2731" class="cls-3" data-name="Group 2731" transform="translate(48.084 28.001)">
            <path id="Path_9515" d="M172.407 309.66c-80.831 46.669-81.257 122.326-.951 169s210.921 46.669 291.752 0 81.237-122.324.941-168.988S253.228 263 172.407 309.66z" class="cls-4" data-name="Path 9515" transform="translate(-111.504 -274.665)"/>
        </g>
        <g id="Group_2732" class="cls-3" data-name="Group 2732" transform="translate(0 205.406)">
            <path id="Path_9516" d="M277.93 389.895c-41.981 24.238-42.2 63.532-.493 87.769s109.545 24.24 151.526 0 42.193-63.532.49-87.768-109.547-24.235-151.523-.001z" class="cls-4" data-name="Path 9516" transform="translate(-246.299 -371.72)"/>
        </g>
        <g id="Group_2733" class="cls-3" data-name="Group 2733" transform="translate(298.109)">
            <path id="Path_9517" d="M114.84 277.523c-41.981 24.238-42.2 63.532-.493 87.769s109.547 24.238 151.528 0 42.191-63.532.488-87.766-109.546-24.239-151.523-.003z" class="cls-4" data-name="Path 9517" transform="translate(-83.209 -259.346)"/>
        </g>
    </g>
    <g id="Group_2762" data-name="Group 2762">
        <g id="Group_2736" data-name="Group 2736">
            <path id="Path_9518" d="M517.044 63.18a12.102 12.102 0 0 1 1.203-.613c.143-.061.283-.124.424-.181s.287-.112.43-.161l.082-.027.031-.011c.1-.035.208-.069.313-.1.146-.046.292-.084.437-.121s.292-.069.437-.1.311-.057.464-.077c.1-.015.208-.022.311-.031l.047-.005c.037 0 .075-.009.113-.011.168-.013.335-.018.5-.016.188 0 .371.009.552.026a6.055 6.055 0 0 1 .611.088h.015l.018.005a5.6 5.6 0 0 1 .707.2 5.018 5.018 0 0 1 .859.4l7.036 4.089a5.229 5.229 0 0 0-1.565-.592l-.022-.005a6.31 6.31 0 0 0-1.786-.091l-.049.005a8.585 8.585 0 0 0-1.96.428l-.031.011a12.206 12.206 0 0 0-2.14.985L327.568 180.726l-7.036-4.089z" class="cls-5" data-name="Path 9518" transform="translate(-309.956 -61.725)"/>
            <path id="Path_9519" d="M432.176 142.431a17.682 17.682 0 0 1 .2-2.084V140.319a19.464 19.464 0 0 1 .329-1.62c.046-.187.1-.375.148-.563.042-.146.084-.291.128-.437l.011-.035.026-.09q.085-.274.176-.548c.06-.181.124-.36.188-.541s.128-.345.2-.519.135-.344.207-.514q.082-.2.17-.395l.009-.024.038-.09a21.987 21.987 0 0 1 .505-1.072c.106-.212.216-.424.327-.634.122-.227.25-.45.378-.673l.066-.119c.027-.046.051-.1.079-.141q.376-.639.788-1.254a24.455 24.455 0 0 1 1.552-2.076c.138-.162.271-.322.409-.481s.274-.307.413-.457c.027-.029.055-.057.082-.088l.031-.031a20.334 20.334 0 0 1 .766-.777 22.482 22.482 0 0 1 .94-.846c.079-.066.159-.13.239-.2l.055-.044.177-.146c.155-.121.311-.239.466-.355s.307-.223.462-.329.3-.2.451-.3.3-.186.45-.276l.1-.06 7.036 4.089a16.275 16.275 0 0 0-2.113 1.464l-.053.044a20.126 20.126 0 0 0-1.945 1.819l-.031.031a24.79 24.79 0 0 0-3.323 4.5c-.024.038-.044.079-.066.117a25.522 25.522 0 0 0-1.247 2.466l-.013.029a23.851 23.851 0 0 0-.961 2.6l-.009.035a19.911 19.911 0 0 0-.605 2.621v.009a16.02 16.02 0 0 0-.208 2.579l.38 134.267a12.044 12.044 0 0 0 .216 2.287l.015.064a8.46 8.46 0 0 0 .6 1.87l.015.035a6.286 6.286 0 0 0 .8 1.232c.1.122.19.252.294.366a5.246 5.246 0 0 0 1.161.956l-7.035-4.089a5.242 5.242 0 0 1-1.161-.956 5.81 5.81 0 0 1-.292-.364 5.738 5.738 0 0 1-.384-.473 6.911 6.911 0 0 1-.4-.727l-.015-.033-.013-.033c-.08-.174-.157-.351-.227-.537s-.128-.366-.187-.557-.1-.356-.141-.543c-.016-.075-.031-.155-.046-.232l-.013-.066c-.015-.075-.033-.146-.046-.221a12.778 12.778 0 0 1-.172-2.032v-.029l-.38-134.269c-.002-.152 0-.311.003-.472z" class="cls-5" data-name="Path 9519" transform="translate(-432.171 -9.679)"/>
            <g id="Group_2735" data-name="Group 2735" transform="translate(7.035 4.087)">
                <path id="Path_9520" d="M329.207 178.875c-5.864 3.385-10.6 11.581-10.576 18.319l.38 134.267c.018 6.738 4.782 9.452 10.646 6.067l196.51-113.455c5.864-3.385 10.6-11.583 10.578-18.319l-.382-134.269c-.018-6.738-4.782-9.452-10.646-6.067z" class="cls-6" data-name="Path 9520" transform="translate(-318.631 -63.961)"/>
            </g>
        </g>
        <path id="Path_9521" d="M507.664 139.795l-15.016-7.659L482.825 148l-10.955 11.146-10.955-6.611-23.422-7.556-10.578 15.111-10.578 8.689-9.637 14.167-13.033-27.388-15.866 7.555-8.311-6.8-17.189 4.533-25.5-2.267" class="cls-7" data-name="Path 9521" transform="translate(-297.457 -3.433)"/>
        <g id="Group_2739" data-name="Group 2739" transform="translate(22.902 146.732)">
            <g id="Group_2737" data-name="Group 2737">
                <path id="Path_9522" d="M428.579 142.968c3.906-2.254 7.094-.439 7.107 4.051a15.547 15.547 0 0 1-7.061 12.208c-3.906 2.256-7.076.448-7.089-4.04a15.545 15.545 0 0 1 7.043-12.219z" class="cls-8" data-name="Path 9522" transform="translate(-421.536 -141.999)"/>
            </g>
            <g id="Group_2738" data-name="Group 2738" transform="translate(3.877 4.986)">
                <path id="Path_9523" d="M426.841 145.166c1.766-1.02 3.206-.2 3.212 1.83a7.031 7.031 0 0 1-3.191 5.52c-1.766 1.018-3.2.2-3.2-1.826a7.024 7.024 0 0 1 3.179-5.524z" class="cls-9" data-name="Path 9523" transform="translate(-423.657 -144.727)"/>
            </g>
        </g>
        <g id="Group_2744" data-name="Group 2744" transform="translate(34.991 188.82)">
            <g id="Group_2740" data-name="Group 2740" transform="translate(26.81)">
                <path id="Path_9524" d="M401.863 171.277v1.791a1.372 1.372 0 0 0 2.056 1.19l8.467-4.879a1.37 1.37 0 0 0 .687-1.188V166.4a1.372 1.372 0 0 0-2.056-1.19l-8.467 4.877a1.371 1.371 0 0 0-.687 1.19z" class="cls-10" data-name="Path 9524" transform="translate(-401.863 -165.025)"/>
            </g>
            <g id="Group_2741" data-name="Group 2741" transform="translate(0 8.914)">
                <path id="Path_9525" d="M401.864 191.5v1.795a1.372 1.372 0 0 0 2.055 1.192l35.274-20.222a1.371 1.371 0 0 0 .689-1.19v-1.795a1.372 1.372 0 0 0-2.055-1.192l-35.274 20.222a1.373 1.373 0 0 0-.689 1.19z" class="cls-10" data-name="Path 9525" transform="translate(-401.864 -169.902)"/>
            </g>
            <g id="Group_2742" class="cls-11" data-name="Group 2742" transform="translate(14.539 26.756)">
                <path id="Path_9526" d="M401.866 192.921v1.795a1.371 1.371 0 0 0 2.055 1.19l20.73-11.883a1.379 1.379 0 0 0 .691-1.192v-1.795a1.372 1.372 0 0 0-2.055-1.19l-20.732 11.883a1.376 1.376 0 0 0-.689 1.192z" class="cls-10" data-name="Path 9526" transform="translate(-401.866 -179.662)"/>
            </g>
            <g id="Group_2743" data-name="Group 2743" transform="translate(5.467 17.835)">
                <path id="Path_9527" d="M401.865 193.242v1.8a1.373 1.373 0 0 0 2.055 1.192l29.8-17.087a1.368 1.368 0 0 0 .691-1.19v-1.8a1.373 1.373 0 0 0-2.055-1.192l-29.805 17.087a1.371 1.371 0 0 0-.686 1.19z" class="cls-10" data-name="Path 9527" transform="translate(-401.865 -174.782)"/>
            </g>
        </g>
        <g id="Group_2761" data-name="Group 2761" transform="translate(119.378 71.898)">
            <g id="Group_2748" class="cls-12" data-name="Group 2748" transform="translate(59.663 2.282)">
                <g id="Group_2745" data-name="Group 2745" transform="translate(0 7.244)">
                    <path id="Path_9528" d="M346.184 109.287l-5.191-3.017.043 15.216 5.191 3.017z" class="cls-13" data-name="Path 9528" transform="translate(-340.993 -106.27)"/>
                </g>
                <g id="Group_2746" data-name="Group 2746">
                    <path id="Path_9529" d="M351.89 105.324l-5.191-3.017-12.546 7.244 5.191 3.017z" class="cls-14" data-name="Path 9529" transform="translate(-334.153 -102.307)"/>
                </g>
                <g id="Group_2747" data-name="Group 2747" transform="translate(5.191 3.017)">
                    <path id="Path_9530" d="M334.129 111.2l.043 15.216 12.546-7.244-.043-15.216z" class="cls-15" data-name="Path 9530" transform="translate(-334.129 -103.958)"/>
                </g>
            </g>
            <g id="Group_2752" class="cls-12" data-name="Group 2752" transform="translate(39.77 .144)">
                <g id="Group_2749" data-name="Group 2749" transform="translate(0 7.238)">
                    <path id="Path_9531" d="M357.046 108.114l-5.191-3.017.082 28.822 5.191 3.017z" class="cls-16" data-name="Path 9531" transform="translate(-351.855 -105.098)"/>
                </g>
                <g id="Group_2750" data-name="Group 2750">
                    <path id="Path_9532" d="M362.769 104.154l-5.191-3.017-12.537 7.238 5.191 3.017z" class="cls-5" data-name="Path 9532" transform="translate(-345.041 -101.138)"/>
                </g>
                <g id="Group_2751" data-name="Group 2751" transform="translate(5.191 3.017)">
                    <path id="Path_9533" d="M345 110.026l.082 28.822 12.537-7.238-.082-28.822z" class="cls-17" data-name="Path 9533" transform="translate(-344.996 -102.788)"/>
                </g>
            </g>
            <g id="Group_2756" class="cls-12" data-name="Group 2756" transform="translate(19.883)">
                <g id="Group_2753" data-name="Group 2753" transform="translate(0 7.238)">
                    <path id="Path_9534" d="M367.907 108.036l-5.191-3.017.115 40.429 5.191 3.017z" class="cls-18" data-name="Path 9534" transform="translate(-362.716 -105.019)"/>
                </g>
                <g id="Group_2754" data-name="Group 2754">
                    <path id="Path_9535" d="M373.648 104.076l-5.191-3.017-12.537 7.241 5.191 3.017z" class="cls-19" data-name="Path 9535" transform="translate(-355.92 -101.059)"/>
                </g>
                <g id="Group_2755" data-name="Group 2755" transform="translate(5.191 3.017)">
                    <path id="Path_9536" d="M355.858 109.948l.115 40.429 12.537-7.238-.115-40.429z" class="cls-19" data-name="Path 9536" transform="translate(-355.858 -102.709)"/>
                </g>
            </g>
            <g id="Group_2760" class="cls-12" data-name="Group 2760" transform="translate(0 1.055)">
                <g id="Group_2757" data-name="Group 2757" transform="translate(0 7.238)">
                    <path id="Path_9537" d="M378.769 108.613l-5.191-3.017.144 50.836 5.191 3.017z" class="cls-20" data-name="Path 9537" transform="translate(-373.578 -105.596)"/>
                </g>
                <g id="Group_2758" data-name="Group 2758">
                    <path id="Path_9538" d="M384.526 104.653l-5.191-3.017-12.535 7.239 5.191 3.017z" class="cls-21" data-name="Path 9538" transform="translate(-366.798 -101.636)"/>
                </g>
                <g id="Group_2759" data-name="Group 2759" transform="translate(5.191 3.017)">
                    <path id="Path_9539" d="M366.719 110.525l.144 50.836 12.537-7.238-.144-50.836z" class="cls-22" data-name="Path 9539" transform="translate(-366.719 -103.287)"/>
                </g>
            </g>
        </g>
    </g>
    <g id="Group_2775" data-name="Group 2775" transform="translate(231.269 29.165)">
        <g id="Group_2774" data-name="Group 2774">
            <g id="Group_2773" data-name="Group 2773">
                <path id="Path_9540" d="M271.435 261.781s-1.916 6.432 3.332 10.04 7.821 4.392 12.084 6.032 8.2 7.216 6.233 11.152-11.152 4.592-17.056 2.952-6.889-6.887-12.464-8.856a20.624 20.624 0 0 1-9.185-5.9c-1.64-1.64 2.817-16.586 2.817-16.586l16.208 1.826" class="cls-23" data-name="Path 9540" transform="translate(-181.619 73.765)"/>
                <path id="Path_9541" d="M298.047 172.105s4.848 32.719 7.878 44.231 13.329 53.926 11.512 63.016-13.937 31.508-16.966 42.415-5.453 20-7.876 21.207-10.3 0-15.148-7.271-.607-3.031-.607-3.031 1.819-18.176 3.636-24.236 9.7-26.055 9.09-32.719-13.331-40.6-22.419-56.35a198.5 198.5 0 0 1-14.547-32.114z" class="cls-24" data-name="Path 9541" transform="translate(-203.082 .492)"/>
                <g id="Group_2763" data-name="Group 2763" transform="translate(27.711 181.685)">
                    <path id="Path_9542" d="M287.1 270.533s-.329 4.919 4.919 8.527 6.233 5.9 10.5 7.546 8.2 7.215 6.231 11.152-11.15 4.591-17.05 2.952-6.887-6.889-12.464-8.856a20.6 20.6 0 0 1-9.183-5.9c-1.641-1.641-.985-8.2-.985-8.2l20.008-6.558" class="cls-23" data-name="Path 9542" transform="translate(-252.263 -99.706)"/>
                    <path id="Path_9543" d="M325.919 177.077s-1.817 26.661-5.453 33.931-4.243 12.724-6.059 23.026-7.876 79.981-7.271 92.7.607 27.267 0 29.083-12.119 6.664-21.812 0c0 0-1.819-15.148-3.031-32.719s-.605-40.6-2.424-63.016-10.905-62.408-10.905-77.557c0 .005 29.083 9.095 56.955-5.448z" class="cls-25" data-name="Path 9543" transform="translate(-268.964 -177.077)"/>
                    <path id="Path_9544" d="M325.919 177.077s-.349 5.131-1.049 11.5a130.139 130.139 0 0 1-24.17 10.011c-19.087 5.453-21.017 12.724-21.017 29.992s7.213 34.538 6.3 51.806c-.68 12.921-1.375 53.818 1.364 76.643a18.826 18.826 0 0 1-2.025-1.206s-1.819-15.148-3.031-32.719-.605-40.6-2.424-63.016-10.905-62.408-10.905-77.557c.002-.001 29.085 9.089 56.957-5.454z" class="cls-24" data-name="Path 9544" transform="translate(-268.964 -177.077)"/>
                </g>
                <g id="Group_2772" data-name="Group 2772" transform="translate(14.101)">
                    <path id="Path_9545" d="M286.22 135.9s-25.112-20.79-30.22-21.274c-6.127-.477-13.769 1.6-15.764 10.289s2.63 15.294 7.237 17.82 51.243 26.634 58.386 26.6 11.7-6.186 7.07-13.815-26.709-19.62-26.709-19.62z" class="cls-26" data-name="Path 9545" transform="translate(-190.866 -47.147)"/>
                    <g id="Group_2771" data-name="Group 2771" transform="translate(0 4.412)">
                        <g id="Group_2768" data-name="Group 2768" transform="translate(0 48.02)">
                            <g id="Group_2767" data-name="Group 2767" transform="translate(25.322)">
                                <g id="Group_2766" data-name="Group 2766">
                                    <g id="Group_2765" data-name="Group 2765">
                                        <g id="Group_2764" data-name="Group 2764">
                                            <path id="Path_9546" d="M303.641 117.272a2.578 2.578 0 0 0 .049.826c.375 1.863 1.546 6.621 1.819 8.618.263 1.914-1.755 5.354-6.951 5.5s-14.115-1.587-17.352-7.63c.185-1.111-.751-12.55-1.764-18.226z" class="cls-27" data-name="Path 9546" transform="translate(-279.442 -106.365)"/>
                                        </g>
                                    </g>
                                </g>
                            </g>
                            <path id="Path_9547" d="M291.029 113.321s-24.724 19.571-26.958 25.786-1.941 23.192 3.9 34.231 5.511 58.145 7.814 66.182 24.36 9.523 37.8 6.231 34.794-14.546 30.5-29.805c-6.337-22.534-4.387-50.669-3.877-57.84S338.9 133.077 335 121.24c-.823-2.5-9.629-5.986-9.629-5.986s-9.134-4.254-34.342-1.933z" class="cls-28" data-name="Path 9547" transform="translate(-262.782 -101.179)"/>
                        </g>
                        <path id="Path_9548" d="M283.326 115.081c21.492-1.976 31.385 1.722 33.841 2.859a63.666 63.666 0 0 1-.313 15.265c-1.684 10.158-5.729 38.062-5.729 38.062s-13.261-22.925-21.991-32.361a888.544 888.544 0 0 0-15.246-16.031c5.152-4.398 9.438-7.794 9.438-7.794z" class="cls-29" data-name="Path 9548" transform="translate(-255.917 -51.602)"/>
                        <path id="Path_9549" d="M303.641 117.272a2.578 2.578 0 0 0 .049.826c.375 1.863 1.546 6.621 1.819 8.618.263 1.914-1.755 5.354-6.951 5.5s-14.115-1.587-17.352-7.63c.185-1.111-.751-12.55-1.764-18.226z" class="cls-30" data-name="Path 9549" transform="translate(-254.119 -58.345)"/>
                        <g id="Group_2770" data-name="Group 2770" transform="translate(11.649)">
                            <g id="Group_2769" data-name="Group 2769">
                                <path id="Path_9550" d="M325.76 104.767c-1.384-16.116-13.022-26.347-27.53-24.446 0 0-15.521.007-23.695 12.826s.724 25.164 6.431 32.962a580.715 580.715 0 0 1 5.381 7.255c.413.59.817 1.19 1.256 1.735l.122.168.018-.011a32.261 32.261 0 0 0 12.338 9.284c6 2.457 13.415 2.133 17.78-1.682s9.283-21.975 7.899-38.091z" class="cls-31" data-name="Path 9550" transform="translate(-271.237 -80.094)"/>
                            </g>
                        </g>
                        <path id="Path_9551" d="M299.467 131.685l-9.58-8.485-7.664 13.411-7.726-4.879c8.73 9.448 21.971 32.339 21.971 32.339s3.374-23.278 5.242-35.05z" class="cls-32" data-name="Path 9551" transform="translate(-241.257 -44.407)"/>
                        <path id="Path_9552" d="M288.723 148.12l-4.27-15.065.645-5.162-5.3-4.692-3.718 6.505 4.264 3.9 1.161 22.37c2.908 4.707 4.873 8.1 4.873 8.1s1.074-7.396 2.345-15.956z" class="cls-33" data-name="Path 9552" transform="translate(-231.171 -44.407)"/>
                    </g>
                    <path id="Path_9553" d="M275.087 93.319a23.4 23.4 0 0 0-1.886 22.934c5.831 12.74 13.17 19.12 15.215 19.109s3.131-.366 2.853-1.956-2.045-7.014-2.045-7.014-8.428-2.294-7.6-7.845 4.01-6.105 7.315-4.063 3.433 4.641 5.149 6.962 1.466 7.443 3.054 7.165 2.826-1.641 3.2-4.164.83-5.551-1.744-9.033 1.715-8-.709-12.488a29.983 29.983 0 0 0-4.215-6.306s1.565 3.33 11.96 2.822 14.861.678 19.275-1.241 4.237-7.62 2.016-10.017-8.125-4.312-14.811-7.893-10.951-2.672-19.833-1.938-18.306 8.609-17.194 14.966z" class="cls-13" data-name="Path 9553" transform="translate(-261.657 -77.68)"/>
                </g>
                <path id="Path_9554" d="M279.033 99.054s-.026 16.537 4.544 18.754 4.372-6.7 11.368-8.406 11.834-1.292 11.64 2.049-1.943 15.025-8.174 17.769-15.819 1.307-20.3-1.508-3.961-22.649-5.91-26.005 6.832-2.653 6.832-2.653z" class="cls-13" data-name="Path 9554" transform="translate(-227.327 -60.037)"/>
                <path id="Path_9555" d="M226.526 170.609s6.919 3.3 13.736-3.513 27.72-44.081 27.72-44.081-.908-8.633-10.907-10c0 0-23.631 30.447-28.628 35.9s-10.658 15.664-1.921 21.694z" class="cls-31" data-name="Path 9555" transform="translate(-97.428 -48.425)"/>
                <path id="Path_9556" d="M319.763 172.769s12.925-29.928 11.96-34.966c-1.256-6.014-5.394-12.768-14.29-12.252s-13.945 6.809-15.082 11.938-9.6 45.125-7.56 51.972 9.214 9.5 15.241 2.919 9.731-19.611 9.731-19.611z" class="cls-26" data-name="Path 9556" transform="translate(-293.742 -38.072)"/>
                <path id="Path_9557" d="M276.461 162.143s2.014-7.4 11.627-8.112 56.617 7.39 56.617 7.39 5.948 6.324.455 14.789c0 0-43.619-1.59-51.013-1.364s-18.821-2.146-17.686-12.703z" class="cls-31" data-name="Path 9557" transform="translate(-276.382 -14.508)"/>
                <path id="Path_9558" d="M274.841 157.331c2.363-1.013 9.117-4.014 10.468-4.352 1.521.17 2.027 3.9-.506 5.253s-6.078 3.555-6.416 5.076 3.04 5.577 4.559 6.421 12.96 3.042 13.466 4.941-2.66 2.661-4.685 2.153a27.375 27.375 0 0 0-4.433-.632 4.225 4.225 0 0 1-2.279 2.027c-1.773.76-2.533.634-3.166 1.267s-1.773 1.267-4.18 1.519-7.344-2.025-10.636-2.912-6.586-1.85-6.586-1.85l2.947-12.088a2.792 2.792 0 0 1 1.428-1.821c2.448-1.266 8.178-4.212 10.019-5.002z" class="cls-31" data-name="Path 9558" transform="translate(-196.231 -15.342)"/>
            </g>
            <path id="Path_9559" d="M208.654 125.059s2.045-6.816 4.544-9.317a15.694 15.694 0 0 0 4.546-7.271c.908-2.954-1.137-10 .908-10s5 3.862 4.771 6.816 0 5.908.682 6.59 8.862-4.544 10.68-6.363 7.487-6.123 8.851-4.533.682 2.954-1.817 5-8.852 6.123-9.988 7.714 0 1.364 2.954-.227 2.725 1.364 2.044 3.636 2.045 2.5.228 5-.228 1.59-2.272 4.089-2.727 3.862-6.59 4.773a24.315 24.315 0 0 0-10.225 5.453c-2.045 2.045-9.543-1.135-9.543-1.135z" class="cls-31" data-name="Path 9559" transform="translate(-49.007 -60.466)"/>
        </g>
    </g>
    <g id="Group_2817" data-name="Group 2817" transform="translate(420.22 140.466)">
        <path id="Path_9560" d="M139.052 147.306s-8.143 1.81-9.728 9.5 5.655 13.8 2.036 19.681-8.37 4.749-9.726 14.477 14.477 26.241 26.014 9.728-8.596-53.386-8.596-53.386z" class="cls-34" data-name="Path 9560" transform="translate(13.95 -131.34)"/>
        <path id="Path_9561" d="M226.336 193.042s15.221 4.06 19.281 13.194 3.045 78.137-18.266 106.551-60.887 32.472-70.019 28.414-61.9-30.443-65.961-43.635 16.235-23.34 27.4-28.414 18.266-12.177 24.355-30.443 9.134-49.724 16.237-54.8 24.353-13.191 66.973 9.133z" class="cls-35" data-name="Path 9561" transform="translate(-26.199 -105.765)"/>
        <path id="Path_9562" d="M130.972 210.693s5.195-30.193 8.542-33.66c4.078-4.089 10.8-7.28 17.539-2.3a15.052 15.052 0 0 1 5.74 17.14c-1.738 4.621-18.835 43.025-23.954 47.368s-12.132 2.747-13.5-5.529 5.633-23.019 5.633-23.019z" class="cls-36" data-name="Path 9562" transform="translate(-5.034 -110.739)"/>
        <path id="Path_9563" d="M177.543 231.21s-5.743 8.971-15.073 6.1-22.251-46.293-25.481-49.165c0 0-1.435-10.408 8.255-10.766 0 0 22.249 36.605 25.479 40.552s7.897 8.254 6.82 13.279z" class="cls-30" data-name="Path 9563" transform="translate(-40.615 -106.443)"/>
        <g id="Group_2802" data-name="Group 2802" transform="translate(110.419 217.427)">
            <g id="Group_2782" data-name="Group 2782" transform="translate(0 34.018)">
                <g id="Group_2781" class="cls-12" data-name="Group 2781">
                    <g id="Group_2776" data-name="Group 2776" transform="translate(.012)">
                        <path id="Path_9564" d="M126.735 281.675l9.538-5.543 35.726 5.9-9.538 5.543z" class="cls-37" data-name="Path 9564" transform="translate(-126.735 -276.132)"/>
                    </g>
                    <g id="Group_2777" data-name="Group 2777" transform="translate(35.737 5.898)">
                        <path id="Path_9565" d="M123.057 284.9l9.538-5.543 6.722 3.881-9.538 5.543z" class="cls-38" data-name="Path 9565" transform="translate(-123.057 -279.359)"/>
                    </g>
                    <g id="Group_2778" data-name="Group 2778" transform="translate(77.762 44.896)">
                        <path id="Path_9566" d="M103.749 306.237l9.538-5.543-.012 4.041-9.538 5.543z" class="cls-39" data-name="Path 9566" transform="translate(-103.737 -300.694)"/>
                    </g>
                    <g id="Group_2779" data-name="Group 2779" transform="translate(42.459 9.779)">
                        <path id="Path_9567" d="M103.737 287.025l9.538-5.543 35.314 35.118-9.538 5.543z" class="cls-40" data-name="Path 9567" transform="translate(-103.737 -281.482)"/>
                    </g>
                    <g id="Group_2780" data-name="Group 2780" transform="translate(0 5.543)">
                        <path id="Path_9568" d="M151.414 288.944l35.314 35.116-.012 4.041-35.327-30.341-6.722-3.881-35.712-10.674.012-4.041 35.726 5.9z" class="cls-41" data-name="Path 9568" transform="translate(-108.955 -279.164)"/>
                    </g>
                </g>
            </g>
            <g id="Group_2789" data-name="Group 2789" transform="translate(1.541 34.018)">
                <g id="Group_2788" class="cls-12" data-name="Group 2788">
                    <g id="Group_2783" data-name="Group 2783" transform="translate(42.036)">
                        <path id="Path_9569" d="M148.164 281.675l-9.538-5.543-35.726 5.9 9.538 5.543z" class="cls-37" data-name="Path 9569" transform="translate(-102.9 -276.132)"/>
                    </g>
                    <g id="Group_2784" data-name="Group 2784" transform="translate(35.314 5.898)">
                        <path id="Path_9570" d="M138.705 284.9l-9.538-5.543-6.722 3.881 9.538 5.543z" class="cls-38" data-name="Path 9570" transform="translate(-122.445 -279.359)"/>
                    </g>
                    <g id="Group_2785" data-name="Group 2785" transform="translate(0 44.896)">
                        <path id="Path_9571" d="M154.974 306.237l-9.538-5.543.012 4.041 9.538 5.543z" class="cls-39" data-name="Path 9571" transform="translate(-145.436 -300.694)"/>
                    </g>
                    <g id="Group_2786" data-name="Group 2786" transform="translate(0 9.779)">
                        <path id="Path_9572" d="M170.974 287.025l-9.538-5.543-35.313 35.118 9.538 5.543z" class="cls-40" data-name="Path 9572" transform="translate(-126.123 -281.482)"/>
                    </g>
                    <g id="Group_2787" data-name="Group 2787" transform="translate(9.538 5.543)">
                        <path id="Path_9573" d="M138.208 288.944l-35.314 35.116.011 4.041 35.327-30.341 6.722-3.881 35.712-10.674-.012-4.041-35.726 5.9z" class="cls-41" data-name="Path 9573" transform="translate(-102.894 -279.164)"/>
                    </g>
                </g>
            </g>
            <g id="Group_2796" data-name="Group 2796" transform="translate(1.541 34.018)">
                <g id="Group_2795" class="cls-12" data-name="Group 2795">
                    <g id="Group_2790" data-name="Group 2790" transform="translate(42.036)">
                        <path id="Path_9574" d="M148.164 281.675l-9.538-5.543-35.726 5.9 9.538 5.543z" class="cls-37" data-name="Path 9574" transform="translate(-102.9 -276.132)"/>
                    </g>
                    <g id="Group_2791" data-name="Group 2791" transform="translate(35.314 5.898)">
                        <path id="Path_9575" d="M138.705 284.9l-9.538-5.543-6.722 3.881 9.538 5.543z" class="cls-38" data-name="Path 9575" transform="translate(-122.445 -279.359)"/>
                    </g>
                    <g id="Group_2792" data-name="Group 2792" transform="translate(0 44.896)">
                        <path id="Path_9576" d="M154.974 306.237l-9.538-5.543.012 4.041 9.538 5.543z" class="cls-39" data-name="Path 9576" transform="translate(-145.436 -300.694)"/>
                    </g>
                    <g id="Group_2793" data-name="Group 2793" transform="translate(0 9.779)">
                        <path id="Path_9577" d="M170.974 287.025l-9.538-5.543-35.313 35.118 9.538 5.543z" class="cls-40" data-name="Path 9577" transform="translate(-126.123 -281.482)"/>
                    </g>
                    <g id="Group_2794" data-name="Group 2794" transform="translate(9.538 5.543)">
                        <path id="Path_9578" d="M138.208 288.944l-35.314 35.116.011 4.041 35.327-30.341 6.722-3.881 35.712-10.674-.012-4.041-35.726 5.9z" class="cls-41" data-name="Path 9578" transform="translate(-102.894 -279.164)"/>
                    </g>
                </g>
            </g>
            <g id="Group_2801" data-name="Group 2801" transform="translate(37.909)">
                <g id="Group_2800" class="cls-12" data-name="Group 2800">
                    <g id="Group_2797" data-name="Group 2797" transform="translate(0 4.082)">
                        <path id="Path_9579" d="M126.859 259.755l.114 40.151 7.027 4.082-.114-40.151z" class="cls-42" data-name="Path 9579" transform="translate(-126.859 -259.755)"/>
                    </g>
                    <g id="Group_2798" data-name="Group 2798" transform="translate(7.024 4.082)">
                        <path id="Path_9580" d="M122.991 263.837l.114 40.151 7.07-4.082-.114-40.151z" class="cls-6" data-name="Path 9580" transform="translate(-122.991 -259.755)"/>
                    </g>
                    <g id="Group_2799" data-name="Group 2799">
                        <path id="Path_9581" d="M123.053 261.6l7.024 4.082 7.07-4.082-7.024-4.082z" class="cls-43" data-name="Path 9581" transform="translate(-123.053 -257.522)"/>
                    </g>
                </g>
            </g>
        </g>
        <g id="Group_2803" data-name="Group 2803" transform="translate(21.717 213.363)">
            <path id="Path_9582" d="M206.155 305.426s-8.973 9.878-16.513 13.2c-7.465 7.014-14.252 12.141-13.347 17.57 1.81 5.429 18.7 1.206 25.638-2.714s12.667-10.863 12.667-10.863l-1.15 3.255a1 1 0 0 0 1.34 1.243 6.664 6.664 0 0 0 2.826-2.086c1.508-2.111 3.016-9.048 1.508-12.366s-12.969-7.239-12.969-7.239z" class="cls-23" data-name="Path 9582" transform="translate(-176.213 -213.798)"/>
            <path id="Path_9583" d="M215.179 269.243a47.514 47.514 0 0 1-11.73 28.833c-11.728 13.194-27.853 36.651-33.229 51.8-5.526 9.794-10.375 13.241-18.683 6.4-3.318-1.506 3.016-15.382 12.819-34.255 9.582-18.451 25.411-58.152 29.809-62.552s19.548-9.769 21.014 9.774z" class="cls-30" data-name="Path 9583" transform="translate(-124.914 -255.298)"/>
            <path id="Path_9584" d="M191.056 306.064s-2.941 6.787-11.086 12.9 2.113 12.366 7.843 10.556 15.985-9.35 16.89-12.667-1.055-19.153-13.647-10.789z" class="cls-30" data-name="Path 9584" transform="translate(-162.697 -215.266)"/>
        </g>
        <g id="Group_2804" data-name="Group 2804" transform="translate(0 189.838)">
            <path id="Path_9585" d="M218.035 292.556s-8.973 9.878-16.513 13.2c-7.465 7.012-14.252 12.139-13.347 17.57 1.81 5.429 18.7 1.206 25.638-2.716s12.667-10.858 12.667-10.858L225.332 313a1 1 0 0 0 1.338 1.243 6.655 6.655 0 0 0 2.828-2.086c1.508-2.111 3.016-9.048 1.508-12.366s-12.971-7.235-12.971-7.235z" class="cls-23" data-name="Path 9585" transform="translate(-188.093 -200.928)"/>
            <path id="Path_9586" d="M227.06 256.371a47.515 47.515 0 0 1-11.728 28.829C203.6 298.4 187.477 321.855 182.1 337c-5.524 9.794-10.375 13.243-18.683 6.4-3.318-1.508 3.016-15.383 12.819-34.256C185.821 290.7 201.649 251 206.047 246.6s19.547-9.774 21.013 9.771z" class="cls-30" data-name="Path 9586" transform="translate(-136.795 -242.428)"/>
            <path id="Path_9587" d="M202.935 293.195s-2.941 6.785-11.084 12.894 2.111 12.366 7.842 10.556 15.987-9.35 16.891-12.667-1.057-19.153-13.649-10.783z" class="cls-30" data-name="Path 9587" transform="translate(-174.576 -202.396)"/>
        </g>
        <path id="Path_9588" d="M226.632 230.246s5.429 25.336-6.785 41.623-48.863 26.241-50.673 28.956-5.882 7.238-10.406 7.238-39.813-16.74-44.337-34.384c1.356-12.216 5.429-15.835 10.406-19.906s37.1-19 38.908-21.717 2.714-8.143 2.714-8.143z" class="cls-44" data-name="Path 9588" transform="translate(-49.652 -67.919)"/>
        <path id="Path_9589" d="M166.616 180s17.9 8.595 21.342 15.04 3.436 21.915-9.883 36.093c-8.165 11.6-12.89 43.4-17.475 51.135-5.729 7.447-32.944 9.167-47.552 3.438s-14.508-19.889-11.455-24.711c8.6-13.572 5.153-25.994 4.866-32.582s-5.442-14.038-2.292-23.2 17.762-15.468 20.054-18.334 9.167-13.462 16.9-13.749 25.495 6.87 25.495 6.87z" class="cls-36" data-name="Path 9589" transform="translate(14.762 -109.975)"/>
        <path id="Path_9590" d="M102.8 242.809c8.6-13.572 5.153-25.994 4.866-32.582-.2-4.548-2.713-9.5-3.217-15.153 9.878 9.234 24.459 19.639 40.427 20.138 18.432.576 34.651-9.843 44.015-17.5a44.825 44.825 0 0 1-9.609 15.232c-8.165 11.6-12.89 43.4-17.475 51.135-5.729 7.447-32.944 9.167-47.552 3.436s-14.512-19.884-11.455-24.706z" class="cls-45" data-name="Path 9590" transform="translate(13.559 -91.794)"/>
        <path id="Path_9591" d="M111 225.222c2.4-6.063 2.2-11.724 1.967-16.513C147.55 229.666 175.9 218.7 175.9 218.7v.04c0 2.85-1.142 5.8-1.934 8.73-.016.059.249.115.234.174-.384 1.42-.618 2.833-.985 4.226-.018.071.035.139.015.21-.155.59-.274 1.177-.426 1.76-.192.727-.369 1.468-.556 2.179-.015.055-.02.11-.035.164-33.601 6.675-54.179-5.624-61.213-10.961z" class="cls-34" data-name="Path 9591" transform="translate(8.55 -80.505)"/>
        <g id="Group_2807" data-name="Group 2807" transform="translate(92.775 42.122)">
            <g id="Group_2806" class="cls-12" data-name="Group 2806">
                <path id="Path_9592" d="M134.572 162.468a2.618 2.618 0 0 0-2.113.115c1.554-.9 2.632-1.42 4.345-.431q1.017.589 2.036 1.175l11.611 6.7q13.4 7.735 26.791 15.468c2.647 1.528 4.88 3.241 5.831 6.332.907 2.963.336 6.686.327 9.721q-.022 8.346-.048 16.692-.005 2.539-.015 5.082c-.005 2.108-.746 3.111-2.526 4.146 1.5-.87 1.25-2.941 1.254-4.436q.011-3.26.018-6.518l.049-16.9c.011-4 .389-7.832-2.665-11-1.819-1.89-4.685-3.065-6.917-4.354l-23.081-13.325-10.059-5.807a26.868 26.868 0 0 0-4.838-2.66z" class="cls-26" data-name="Path 9592" transform="translate(-131.13 -161.616)"/>
                <g id="Group_2805" data-name="Group 2805" transform="translate(0 .68)">
                    <path id="Path_9593" d="M137.631 162.579c-2.369-1.367-4.292-.285-4.3 2.437l-.084 29.994a9.414 9.414 0 0 0 4.272 7.4l42.359 24.457c2.369 1.367 4.292.271 4.3-2.451l.084-29.994a9.394 9.394 0 0 0-4.272-7.387z" class="cls-10" data-name="Path 9593" transform="translate(-133.246 -161.987)"/>
                </g>
            </g>
        </g>
        <g id="Group_2808" data-name="Group 2808" transform="translate(135.492 78.889)">
            <path id="Path_9594" d="M102.259 222.574s5.2-30.193 8.544-33.66c4.076-4.089 10.8-7.28 17.539-2.3a15.052 15.052 0 0 1 5.74 17.14c-1.74 4.621-18.835 43.023-23.954 47.366s-12.132 2.749-13.5-5.527 5.631-23.019 5.631-23.019z" class="cls-36" data-name="Path 9594" transform="translate(-59.332 -179.792)"/>
            <path id="Path_9595" d="M148.83 243.089s-5.741 8.973-15.073 6.1-22.249-46.295-25.479-49.166c0 0-1.437-10.406 8.253-10.764 0 0 22.251 36.6 25.481 40.552s7.895 8.255 6.818 13.278z" class="cls-30" data-name="Path 9595" transform="translate(-94.914 -175.496)"/>
            <path id="Path_9596" d="M147.766 197s-1.508-9.05-5.429-11.764-12.969-5.127-15.382-2.111-.907 15.082 1.508 16.288a81.165 81.165 0 0 0 8.143 3.016s2.111 4.524 4.826 4.524 6.334-9.953 6.334-9.953z" class="cls-30" data-name="Path 9596" transform="translate(-125.732 -181.73)"/>
        </g>
        <g id="Group_2809" data-name="Group 2809" transform="translate(100.719 65.461)">
            <path id="Path_9597" d="M156.635 174.648a4.182 4.182 0 0 1 1.906 3.3c0 1.217-.859 1.705-1.919 1.093a4.185 4.185 0 0 1-1.9-3.3c0-1.218.855-1.706 1.913-1.093z" class="cls-46" data-name="Path 9597" transform="translate(-154.718 -174.383)"/>
        </g>
        <g id="Group_2816" data-name="Group 2816" transform="translate(148.32)">
            <g id="Group_2815" data-name="Group 2815" transform="translate(0 6.195)">
                <g id="Group_2814" data-name="Group 2814">
                    <g id="Group_2813" data-name="Group 2813">
                        <g id="Group_2812" data-name="Group 2812">
                            <path id="Path_9598" d="M112.347 178.914a2.584 2.584 0 0 1-.051.821c-.371 1.852-1.537 6.584-1.808 8.571-.261 1.9 1.746 5.323 6.913 5.473s14.036-1.577 17.253-7.588c-.181-1.1.749-12.479 1.755-18.123z" class="cls-27" data-name="Path 9598" transform="translate(-99.3 -120.347)"/>
                            <g id="Group_2811" data-name="Group 2811">
                                <g id="Group_2810" data-name="Group 2810">
                                    <path id="Path_9599" d="M102.139 162.944c3.734-15.645 16.687-23.993 30.674-19.986 0 0 15.263 2.292 21.414 16.1s-4.418 24.644-11.179 31.471c-2.848 2.8-5 4.963-6.361 6.341-.494.521-.978 1.051-1.49 1.521l-.144.148-.016-.013a32.116 32.116 0 0 1-13.5 7.313c-6.262 1.532-13.508.122-17.239-4.274s-5.898-22.975-2.159-38.621z" class="cls-30" data-name="Path 9599" transform="translate(-100.195 -141.96)"/>
                                </g>
                            </g>
                        </g>
                    </g>
                </g>
            </g>
            <path id="Path_9600" d="M98.3 150.993s-6.937 2.111-1.81 12.667 13.572 7.24 13.874 15.987 1.508 12.366 9.05 16.59-1.508 8.445-1.508 22.922 14.175 16.59 20.207 12.367.9-8.447 8.748-16.288 16.588-11.461 10.556-22.32-6.334-10.254-5.429-24.731-5.73-23.527-18.7-27.447-26.242-3.621-34.988 10.253z" class="cls-34" data-name="Path 9600" transform="translate(-93.317 -138.571)"/>
        </g>
    </g>
    <g id="Group_2826" data-name="Group 2826" transform="translate(348.281 489.898)">
        <g id="Group_2820" data-name="Group 2820" transform="translate(0 20.299)">
            <g id="Group_2819" class="cls-12" data-name="Group 2819">
                <path id="Path_9601" d="M192.4 359.741c1.024 11.368 11.722 19.089 21.373 23.247a82.061 82.061 0 0 0 33.474 6.211c11.64-.15 23.525-2.376 34.021-7.542 9.16-4.506 18.882-12.682 18.849-23.8.024 8.1-.545 14.788-6.377 21.108-7.513 8.138-18.822 12.521-29.46 14.718-20.754 4.285-49.013 2.214-64.778-13.764-6.345-6.429-7.211-13.2-7.235-21.754.02.526.065 1.053.133 1.576z" class="cls-47" data-name="Path 9601" transform="translate(-192.265 -326.761)"/>
                <g id="Group_2818" data-name="Group 2818" transform="translate(.001)">
                    <path id="Path_9602" d="M208.194 349.992c-21.125 12.2-21.262 31.977-.272 44.174s55.162 12.2 76.288 0 21.213-31.979.223-44.176-55.112-12.195-76.239.002z" class="cls-26" data-name="Path 9602" transform="translate(-192.265 -340.844)"/>
                </g>
            </g>
        </g>
        <g id="Group_2825" data-name="Group 2825" transform="translate(44.318)">
            <g id="Group_2824" class="cls-12" data-name="Group 2824">
                <g id="Group_2821" data-name="Group 2821" transform="translate(0 4.792)">
                    <path id="Path_9603" d="M222.438 332.361l.133 47.139 8.247 4.792-.134-47.138z" class="cls-48" data-name="Path 9603" transform="translate(-222.438 -332.361)"/>
                </g>
                <g id="Group_2822" data-name="Group 2822" transform="translate(8.247 4.793)">
                    <path id="Path_9604" d="M217.9 337.153l.134 47.138 8.3-4.792-.134-47.138z" class="cls-10" data-name="Path 9604" transform="translate(-217.897 -332.361)"/>
                </g>
                <g id="Group_2823" data-name="Group 2823">
                    <path id="Path_9605" d="M217.97 334.531l8.246 4.793 8.3-4.792-8.246-4.793z" class="cls-43" data-name="Path 9605" transform="translate(-217.97 -329.739)"/>
                </g>
            </g>
        </g>
    </g>
    <g id="Group_2828" class="cls-12" data-name="Group 2828" transform="translate(200.216 247.446)">
        <path id="Path_9606" d="M106.532 263.321c.1 37.1 29.051 65.6 58.913 83.3 34.448 20.412 74.733 30.42 114.321 34.128 40.032 3.749 81.193.735 120.035-9.8a248.9 248.9 0 0 0 55.281-21.942c15.546-8.586 30.224-19.281 41.933-32.723 13.1-15.042 22.167-33.9 22.11-54.135.027 9.362.451 18.743-1.493 27.967-2.939 13.941-9.975 26.7-19.056 37.572-11.287 13.521-25.606 24.312-40.825 33.032a241.426 241.426 0 0 1-54.889 22.6c-38.131 10.673-78.235 14.018-117.675 11.073-39.369-2.937-79.094-12.444-113.959-31.339-29.913-16.21-60.362-42.95-64.2-78.86-.743-6.913-.477-13.933-.496-20.873z" class="cls-47" data-name="Path 9606" transform="translate(-106.501 -143.24)"/>
        <g id="Group_2827" data-name="Group 2827" transform="translate(.03)">
            <path id="Path_9607" d="M167.435 232.093c-80.831 46.668-81.257 122.326-.95 168.993s210.921 46.669 291.752 0 81.237-122.326.941-168.988-210.922-46.667-291.743-.005z" class="cls-26" data-name="Path 9607" transform="translate(-106.532 -197.098)"/>
        </g>
    </g>
    <g id="Group_2832" data-name="Group 2832" transform="translate(177.561 333.46)">
        <path id="Path_9608" d="M270.71 258.149s2.941-3.393 5.655-7.012 5.429-6.334 8.6-5.2 2.488 3.844 2.488 3.844.451 2.49.9 5.655-.227 8.145-4.977 9.955a33.306 33.306 0 0 1-9.048 2.036z" class="cls-49" data-name="Path 9608" transform="translate(-153.291 -242.896)"/>
        <path id="Path_9609" d="M283.713 270.493s4.977-2.941 3.846-7.465-2.488-7.24-2.714-9.276 1.131-8.143-1.131-9.273-2.488.9-2.714 2.939-1.583 7.465-2.941 9.5-3.166 4.977-3.166 4.977 4.069 8.145 8.82 8.598z" class="cls-31" data-name="Path 9609" transform="translate(-160.186 -244.155)"/>
        <g id="Group_2829" data-name="Group 2829" transform="translate(66.371 15.121)">
            <path id="Path_9610" d="M281.187 303.061s9.108 6.129 19.171-2.6 31.844-34.417 34.313-36.711c0 0-.186-8.271-8.191-11.322 0 0-16.217 13.545-24.618 19.26s-36.169 21.024-20.675 31.373z" class="cls-50" data-name="Path 9610" transform="translate(-276.569 -252.427)"/>
            <path id="Path_9611" d="M326.266 256.747a13.181 13.181 0 0 1 .684 3.425c-2.469 2.294-24.25 27.981-34.313 36.711-6.485 5.626-12.557 5.078-16.067 3.979 18.19-9.29 40.821-34.012 49.696-44.115z" class="cls-48" data-name="Path 9611" transform="translate(-268.847 -248.851)"/>
        </g>
        <g id="Group_2831" data-name="Group 2831" transform="translate(0 39.424)">
            <g id="Group_2830" data-name="Group 2830">
                <path id="Path_9612" d="M350.235 273.848s-34.664-9.7-40.031-7.9c-6.4 2.267-13.172 7.8-11.289 17.453s9.518 14.25 15.3 14.733 55.156 1.7 62.345-1.546 9.032-11.492.936-17.111-27.261-5.629-27.261-5.629z" class="cls-50" data-name="Path 9612" transform="translate(-298.595 -265.723)"/>
            </g>
            <path id="Path_9613" d="M298.8 276a18.16 18.16 0 0 1-.192-1.334c3.215 4.327 9 9.117 18.984 9.5 18.469.7 45.8.68 51.649-.417 3.93-.738 9.754-3.44 13.159-5.136 1.111 4.242-1.28 8.469-5.955 10.578-7.189 3.243-56.566 2.029-62.345 1.546s-13.416-5.083-15.3-14.737z" class="cls-48" data-name="Path 9613" transform="translate(-298.48 -258.322)"/>
        </g>
    </g>
    <g id="Group_2873" data-name="Group 2873" transform="translate(130.01 223.917)">
        <g id="Group_2836" data-name="Group 2836" transform="translate(46.811 252.605)">
            <g id="Group_2833" data-name="Group 2833" transform="translate(122.391 124.186)">
                <path id="Path_9614" d="M297.08 392.887s4.508 3.1.281 10.423-7.887 2.817-17.465 10.141-12.958 8.734-18.028 8.171-8.169-3.1-9.015-5.917 1.691-7.606 1.691-7.606z" class="cls-51" data-name="Path 9614" transform="translate(-252.68 -388.269)"/>
                <path id="Path_9615" d="M256.477 395.26s-1.972 9.578-3.1 16.9c-.283 3.38 4.224 7.982 10.7 7.7s10.141-2.254 12.395-5.071 16.339-8.264 18.875-10.518 3.1-9.015 1.97-10.7a8.5 8.5 0 0 0-9.86-2.537c-4.506 1.972-8.169 5.635-17.184 6.2s-13.796-1.974-13.796-1.974z" class="cls-23" data-name="Path 9615" transform="translate(-252.641 -390.361)"/>
            </g>
            <g id="Group_2835" data-name="Group 2835" transform="translate(77.695 1.249)">
                <g id="Group_2834" data-name="Group 2834" transform="translate(0 98.523)">
                    <path id="Path_9616" d="M321.533 379.531s4.506 3.1.281 10.423-7.889 2.817-17.465 10.141-12.96 8.732-18.03 8.169-8.169-3.1-9.013-5.915 1.689-7.606 1.689-7.606z" class="cls-51" data-name="Path 9616" transform="translate(-277.132 -374.912)"/>
                    <path id="Path_9617" d="M280.929 381.9s-1.972 9.578-3.1 16.9c-.281 3.382 4.226 7.982 10.7 7.7s10.141-2.254 12.395-5.071 16.339-8.264 18.875-10.518 3.1-9.013 1.972-10.7a8.5 8.5 0 0 0-9.86-2.535c-4.508 1.972-8.171 5.634-17.184 6.2s-13.798-1.976-13.798-1.976z" class="cls-23" data-name="Path 9617" transform="translate(-277.095 -377.004)"/>
                </g>
                <path id="Path_9618" d="M317.036 348.588c-2.254 18.03-11.269 65.356-12.771 81.882 0 0-3.756 6.01-15.023 4.508l-5.348-2.228a5.185 5.185 0 0 1-3.16-5.427c1.133-9.114 3.683-32.063 2.5-45.681-1.5-17.277 3.005-27.795 3.005-27.795-.376-5.634-1.128-25.164 10.141-30.423 0 0 27.607-5.07 20.659 25.164" class="cls-52" data-name="Path 9618" transform="translate(-278.176 -323.104)"/>
            </g>
            <path id="Path_9619" d="M350.283 332.253l3.005 6.008s46.2 2.254 58.595 15.776c0 0 8.262 1.5 6.008 19.531s-11.267 65.354-12.77 81.882c0 0-3.756 6.01-15.025 4.508l-5.347-2.23a5.183 5.183 0 0 1-3.16-5.427c1.133-9.114 3.681-32.063 2.5-45.679-1.5-17.279 3.005-27.795 3.005-27.795a236.115 236.115 0 0 0-42.069 12.77c-21.785 9.015-40.564-1.5-48.828-6.01s-11.267-7.511-11.267-7.511a34.356 34.356 0 0 1-20.284-8.264c-9.765-8.264-11.267-30.048-.751-42.818s86.388 5.259 86.388 5.259z" class="cls-53" data-name="Path 9619" transform="translate(-256.641 -322.421)"/>
        </g>
        <g id="Group_2838" data-name="Group 2838" transform="translate(39.687 135.973)">
            <path id="Path_9620" d="M348.337 289.037s-7.465-2.767-6.975-12.739c2.267-9.821 5-10.483 5-10.483s-10.443-9.649-23.039-6.61c0 0-7.781 15.789-16.583 22.549.005.001 7.041 18.546 41.597 7.283z" class="cls-49" data-name="Path 9620" transform="translate(-271.158 -258.614)"/>
            <g id="Group_2837" data-name="Group 2837" transform="translate(0 12.018)">
                <path id="Path_9621" d="M349.012 271.777s29.3 9.766 37.561 23.287 6.76 28.546.749 49.579 6.01 39.815 3.005 51.082-24.038 21.787-54.838 16.528-33.052-17.279-35.306-24.039 6.01-39.064-1.5-65.356 7.513-44.321 13.521-48.828 18.028-10.515 36.808-2.253z" class="cls-5" data-name="Path 9621" transform="translate(-296.623 -263.138)"/>
                <path id="Path_9622" d="M312.957 274.031c6.01-4.508 18.03-10.518 36.81-2.254 0 0 29.3 9.766 37.561 23.287a37.927 37.927 0 0 1 4.35 10.163c-11.863-15.422-28.7-22.192-39.658 4.111-10.229 24.547 15.793 96.7 38.53 74.011.956 4.732 1.457 8.913.532 12.377-3.005 11.269-24.038 21.787-54.838 16.528s-33.052-17.279-35.306-24.038 6.01-39.064-1.5-65.356 7.511-44.322 13.519-48.829z" class="cls-54" data-name="Path 9622" transform="translate(-297.378 -263.139)"/>
                <path id="Path_9623" d="M352.312 286.6s-7.889 5.071-27.608 2.254-20.845-16.9-19.154-18.03 5.07-5.634 5.07-5.634 20.845 9.578 28.17 12.395 11.269 4.508 11.269 4.508z" class="cls-50" data-name="Path 9623" transform="translate(-271.94 -265.189)"/>
            </g>
        </g>
        <g id="Group_2866" data-name="Group 2866" transform="translate(0 192.701)">
            <g id="Group_2865" data-name="Group 2865" transform="translate(56.785 162.06)">
                <g id="Group_2845" data-name="Group 2845" transform="translate(0 34.018)">
                    <g id="Group_2844" class="cls-12" data-name="Group 2844">
                        <g id="Group_2839" data-name="Group 2839" transform="translate(.011)">
                            <path id="Path_9624" d="M314.845 402.462l9.538-5.543 35.726 5.9-9.538 5.543z" class="cls-37" data-name="Path 9624" transform="translate(-314.845 -396.919)"/>
                        </g>
                        <g id="Group_2840" data-name="Group 2840" transform="translate(35.737 5.898)">
                            <path id="Path_9625" d="M311.168 405.689l9.538-5.543 6.722 3.881-9.538 5.543z" class="cls-38" data-name="Path 9625" transform="translate(-311.168 -400.146)"/>
                        </g>
                        <g id="Group_2841" data-name="Group 2841" transform="translate(77.762 44.896)">
                            <path id="Path_9626" d="M291.86 427.024l9.538-5.543-.012 4.041-9.538 5.543z" class="cls-39" data-name="Path 9626" transform="translate(-291.848 -421.481)"/>
                        </g>
                        <g id="Group_2842" data-name="Group 2842" transform="translate(42.459 9.779)">
                            <path id="Path_9627" d="M291.848 407.812l9.538-5.543 35.314 35.117-9.538 5.543z" class="cls-40" data-name="Path 9627" transform="translate(-291.848 -402.269)"/>
                        </g>
                        <g id="Group_2843" data-name="Group 2843" transform="translate(0 5.543)">
                            <path id="Path_9628" d="M339.525 409.731l35.314 35.116-.011 4.041-35.328-30.341-6.722-3.881-35.712-10.674.011-4.041 35.726 5.9z" class="cls-41" data-name="Path 9628" transform="translate(-297.066 -399.952)"/>
                        </g>
                    </g>
                </g>
                <g id="Group_2852" data-name="Group 2852" transform="translate(1.541 34.018)">
                    <g id="Group_2851" class="cls-12" data-name="Group 2851">
                        <g id="Group_2846" data-name="Group 2846" transform="translate(42.036)">
                            <path id="Path_9629" d="M336.274 402.462l-9.538-5.543-35.726 5.9 9.538 5.543z" class="cls-37" data-name="Path 9629" transform="translate(-291.011 -396.919)"/>
                        </g>
                        <g id="Group_2847" data-name="Group 2847" transform="translate(35.314 5.898)">
                            <path id="Path_9630" d="M326.816 405.689l-9.538-5.543-6.722 3.881 9.538 5.543z" class="cls-38" data-name="Path 9630" transform="translate(-310.556 -400.146)"/>
                        </g>
                        <g id="Group_2848" data-name="Group 2848" transform="translate(0 44.896)">
                            <path id="Path_9631" d="M343.085 427.024l-9.538-5.543.012 4.041 9.538 5.543z" class="cls-39" data-name="Path 9631" transform="translate(-333.547 -421.481)"/>
                        </g>
                        <g id="Group_2849" data-name="Group 2849" transform="translate(0 9.779)">
                            <path id="Path_9632" d="M359.085 407.812l-9.538-5.543-35.314 35.116 9.538 5.543z" class="cls-40" data-name="Path 9632" transform="translate(-314.233 -402.269)"/>
                        </g>
                        <g id="Group_2850" data-name="Group 2850" transform="translate(9.538 5.543)">
                            <path id="Path_9633" d="M326.319 409.731L291 444.847l.012 4.041 35.328-30.341 6.722-3.881 35.712-10.674-.011-4.041-35.726 5.9z" class="cls-41" data-name="Path 9633" transform="translate(-291.005 -399.952)"/>
                        </g>
                    </g>
                </g>
                <g id="Group_2859" data-name="Group 2859" transform="translate(1.541 34.018)">
                    <g id="Group_2858" class="cls-12" data-name="Group 2858">
                        <g id="Group_2853" data-name="Group 2853" transform="translate(42.036)">
                            <path id="Path_9634" d="M336.274 402.462l-9.538-5.543-35.726 5.9 9.538 5.543z" class="cls-37" data-name="Path 9634" transform="translate(-291.011 -396.919)"/>
                        </g>
                        <g id="Group_2854" data-name="Group 2854" transform="translate(35.314 5.898)">
                            <path id="Path_9635" d="M326.816 405.689l-9.538-5.543-6.722 3.881 9.538 5.543z" class="cls-38" data-name="Path 9635" transform="translate(-310.556 -400.146)"/>
                        </g>
                        <g id="Group_2855" data-name="Group 2855" transform="translate(0 44.896)">
                            <path id="Path_9636" d="M343.085 427.024l-9.538-5.543.012 4.041 9.538 5.543z" class="cls-39" data-name="Path 9636" transform="translate(-333.547 -421.481)"/>
                        </g>
                        <g id="Group_2856" data-name="Group 2856" transform="translate(0 9.779)">
                            <path id="Path_9637" d="M359.085 407.812l-9.538-5.543-35.314 35.116 9.538 5.543z" class="cls-40" data-name="Path 9637" transform="translate(-314.233 -402.269)"/>
                        </g>
                        <g id="Group_2857" data-name="Group 2857" transform="translate(9.538 5.543)">
                            <path id="Path_9638" d="M326.319 409.731L291 444.847l.012 4.041 35.328-30.341 6.722-3.881 35.712-10.674-.011-4.041-35.726 5.9z" class="cls-41" data-name="Path 9638" transform="translate(-291.005 -399.952)"/>
                        </g>
                    </g>
                </g>
                <g id="Group_2864" data-name="Group 2864" transform="translate(37.91)">
                    <g id="Group_2863" class="cls-12" data-name="Group 2863">
                        <g id="Group_2860" data-name="Group 2860" transform="translate(0 4.082)">
                            <path id="Path_9639" d="M314.969 380.542l.114 40.151 7.024 4.082-.114-40.151z" class="cls-42" data-name="Path 9639" transform="translate(-314.969 -380.542)"/>
                        </g>
                        <g id="Group_2861" data-name="Group 2861" transform="translate(7.024 4.082)">
                            <path id="Path_9640" d="M311.1 384.624l.114 40.151 7.07-4.082-.114-40.151z" class="cls-6" data-name="Path 9640" transform="translate(-311.102 -380.542)"/>
                        </g>
                        <g id="Group_2862" data-name="Group 2862">
                            <path id="Path_9641" d="M311.164 382.391l7.024 4.082 7.07-4.082-7.024-4.082z" class="cls-43" data-name="Path 9641" transform="translate(-311.164 -378.309)"/>
                        </g>
                    </g>
                </g>
            </g>
            <path id="Path_9642" d="M265.935 299.013a9.694 9.694 0 0 1 12.894-8.81c26.947 9.452 88.711 31.836 92.677 39.773 3.782 7.562 16 49.808 22.015 70.971a9.7 9.7 0 0 0 14.261 5.687l37.331-22.015a9.706 9.706 0 0 1 14.5 9.956l-5.994 35.96a9.7 9.7 0 0 1-4.74 6.822L408.943 460.3a76.811 76.811 0 0 1-72.609 2.1L305.543 447a76.808 76.808 0 0 1-42.407-71.5z" class="cls-35" data-name="Path 9642" transform="translate(-263.085 -289.649)"/>
        </g>
        <g id="Group_2868" data-name="Group 2868" transform="translate(105.389 180.259)">
            <g id="Group_2867" data-name="Group 2867">
                <path id="Path_9643" d="M322 303.576s-29.48-20.655-35.143-20.734c-6.783.016-15.011 2.985-16.438 12.72s4.254 16.6 9.545 18.972 51.469 19.9 59.329 19.224 12.333-7.843 6.557-15.83S322 303.576 322 303.576z" class="cls-50" data-name="Path 9643" transform="translate(-270.201 -282.842)"/>
            </g>
            <path id="Path_9644" d="M270.452 290.4c.068-.461.164-.892.261-1.323 1.6 5.147 5.467 11.589 14.758 15.255 17.193 6.787 42.981 15.835 48.863 16.74 3.952.609 10.342-.009 14.119-.479-.36 4.37-4.016 7.564-9.127 8-7.86.674-54.036-16.849-59.329-19.224s-10.971-9.233-9.545-18.969z" class="cls-48" data-name="Path 9644" transform="translate(-270.229 -277.68)"/>
        </g>
        <g id="Group_2870" data-name="Group 2870" transform="translate(164.344 191.787)">
            <path id="Path_9645" d="M232.465 308.8s7.24-1.356 9.955-2.939 6.334-5.431 7.69-5.431 5.431 1.358 6.335.9 0-2.034-.68-2.261-5.429-.678-4.751-.9 5.655 1.131 6.109 0-4.977-7.238-10.633-8.6-6.56.9-9.275 2.036-9.275 6.107-9.275 6.107.454 9.275 4.525 11.088z" class="cls-31" data-name="Path 9645" transform="translate(-160.581 -289.149)"/>
            <g id="Group_2869" data-name="Group 2869" transform="translate(0 5.06)">
                <path id="Path_9646" d="M241.479 318.169s5.747 10.583 19.966 7.2 48.443-17.306 52.011-18.284c0 0 4.018-8.138-2.219-15.17 0 0-22.649 4.941-33.723 6.235s-45.851 2.088-36.035 20.019z" class="cls-50" data-name="Path 9646" transform="translate(-239.753 -291.917)"/>
                <path id="Path_9647" d="M310.593 298.2a14.437 14.437 0 0 1-1.073 3.678c-3.568.978-37.793 14.9-52.011 18.284-9.163 2.181-14.791-1.437-17.646-4.286 22.408.203 56.97-12.351 70.73-17.676z" class="cls-48" data-name="Path 9647" transform="translate(-235.818 -286.712)"/>
            </g>
        </g>
        <g id="Group_2871" data-name="Group 2871" transform="translate(77 81.604)">
            <path id="Path_9648" d="M343.225 239.357s6.032 4.222 6.937 11.463-3.921 11.159-1.81 15.683 3.016 9.35 1.81 13.572-3.016 14.479-5.73 17.193-13.572 0-22.019-2.413-15.985-9.048-19-15.683-7.238-18.4-4.826-28.352 12.667-17.8 19.6-18.4 15.688-.302 25.038 6.937z" class="cls-31" data-name="Path 9648" transform="translate(-294.617 -226.1)"/>
            <path id="Path_9649" d="M348.788 237.147s6.635 5.431 3.318 13.272c-2.111 2.413-8.143 5.429-10.254 9.651s3.318 9.651-.9 14.175-8.143 6.335-9.35 12.066-9.05 4.826-19.3 1.81c-3.921-1.81-6.635-8.746-6.635-8.746s-6.937-12.971-8.143-21.114.9-11.762 3.318-11.762 12.667 8.143 20.81 5.429 22.31-15.987 27.136-14.781z" class="cls-55" data-name="Path 9649" transform="translate(-295.655 -222.081)"/>
            <path id="Path_9650" d="M352.605 243.936s-.3-7.238-8.143-12.366-26.241-1.81-31.067.6c-3.619 2.413-.3 3.016-.3 3.016s-6.334 2.714-9.953 6.937-4.826 14.479-2.413 19.606 15.683 8.143 22.922 6.635 29.859-11.764 28.954-24.428z" class="cls-56" data-name="Path 9650" transform="translate(-299.473 -228.87)"/>
            <path id="Path_9651" d="M310.072 257.032s-1.294-5.016-4.206-2.265-1.294 9.547.647 10.194 4.693-3.074 3.559-7.929z" class="cls-31" data-name="Path 9651" transform="translate(-265.959 -208.112)"/>
        </g>
        <g id="Group_2872" data-name="Group 2872" transform="translate(66.349)">
            <path id="Path_9652" d="M376.5 240c4.61 2.663 8.344 9.128 8.328 14.427l-.048 16.765c-.015 5.31-3.773 7.439-8.383 4.778l-64.354-37.554-3.76 6.416-3.7-10.724-22.8-12.768c-4.612-2.661-8.335-9.11-8.319-14.418l.048-16.769c.015-5.3 3.762-7.443 8.374-4.782z" class="cls-36" data-name="Path 9652" transform="translate(-273.454 -184.226)"/>
        </g>
    </g>
    <g id="Group_2928" data-name="Group 2928" transform="translate(282.652 272.624)">
        <g id="Group_2878" data-name="Group 2878" transform="translate(26.899 73.472)">
            <g id="Group_2874" data-name="Group 2874">
                <path id="Path_9653" d="M327.249 279.91l-71.02 41.272-49.957-28.843 71.02-41.272z" class="cls-50" data-name="Path 9653" transform="translate(-206.272 -251.067)"/>
            </g>
            <g id="Group_2877" data-name="Group 2877" transform="translate(52.397 15.881)">
                <g id="Group_2875" data-name="Group 2875" transform="translate(8.22)">
                    <path id="Path_9654" d="M225.441 262.446l11.172 6.494 14.15-4.169c-3.948-4.518-13.486-6.315-21.3-4.012a17.551 17.551 0 0 0-4.022 1.687z" class="cls-26" data-name="Path 9654" transform="translate(-225.441 -259.755)"/>
                </g>
                <g id="Group_2876" data-name="Group 2876" transform="translate(0 3.535)">
                    <path id="Path_9655" d="M228.441 261.689c-7.509 4.336-7.547 11.366-.086 15.7s19.595 4.336 27.106 0c6.008-3.469 7.418-8.52 3.6-12.89l-17.107 5.041z" class="cls-57" data-name="Path 9655" transform="translate(-222.784 -261.689)"/>
                </g>
            </g>
        </g>
        <g id="Group_2882" data-name="Group 2882" transform="translate(0 97.576)">
            <g id="Group_2879" data-name="Group 2879">
                <path id="Path_9656" d="M246.7 281.189c-1.382.8-1.387 2.089-.016 2.884l40.542 23.539a5.473 5.473 0 0 0 4.979 0l28.3-16.338c1.378-.8 1.389-2.087.016-2.884l-40.542-23.539a5.487 5.487 0 0 0-4.981 0z" class="cls-58" data-name="Path 9656" transform="translate(-245.657 -264.254)"/>
            </g>
            <g id="Group_2881" data-name="Group 2881" transform="translate(0 2.539)">
                <path id="Path_9657" d="M245.659 274.416c0 .037.006.073.013.11s.015.06.022.091.018.069.031.1l.037.086c.013.029.031.073.051.11s.031.053.048.079a1.3 1.3 0 0 0 .082.122l.057.071a2.04 2.04 0 0 0 .15.161c.02.018.038.038.058.057s.071.06.108.09.064.053.1.079.084.057.126.084.088.059.135.086l40.542 23.539a3.815 3.815 0 0 0 .492.234l.137.053c.108.038.219.069.331.1s.232.062.353.088c.141.029.281.055.426.073.037.005.069.011.106.015a5.769 5.769 0 0 0 .592.033h.093a5.664 5.664 0 0 0 .585-.031l.086-.011a5.246 5.246 0 0 0 .567-.1c.033-.007.066-.016.1-.026a4.2 4.2 0 0 0 .488-.148c.029-.009.059-.018.086-.029a3.725 3.725 0 0 0 .537-.254l28.3-16.338a2.032 2.032 0 0 0 .976-1.06 1.27 1.27 0 0 0 .064-.391l.009 1.623a1.2 1.2 0 0 1-.015.2 1.884 1.884 0 0 1-1.025 1.254l-28.3 16.339a3.855 3.855 0 0 1-.51.243l-.027.011-.086.027c-.1.038-.207.077-.314.108l-.175.042-.1.024-.091.024a5.085 5.085 0 0 1-.349.06l-.126.015-.086.009c-.044 0-.086.011-.13.015-.115.009-.23.015-.346.018h-.36a3.83 3.83 0 0 1-.389-.026l-.046-.005-.1-.015c-.1-.013-.2-.026-.3-.042-.044-.007-.084-.024-.128-.033a4.789 4.789 0 0 1-.353-.088c-.06-.016-.126-.026-.185-.046s-.1-.037-.144-.055-.093-.035-.139-.053a3.8 3.8 0 0 1-.492-.232l-40.542-23.541-.044-.026c-.033-.018-.06-.04-.091-.06s-.086-.055-.126-.084-.066-.051-.1-.077l-.11-.09-.022-.018-.037-.04a1.742 1.742 0 0 1-.148-.161l-.033-.035-.026-.035a1.66 1.66 0 0 1-.082-.124.522.522 0 0 1-.035-.051l-.013-.026c-.018-.037-.035-.073-.051-.11s-.022-.044-.029-.064l-.007-.022a2.872 2.872 0 0 1-.029-.106.524.524 0 0 1-.02-.071v-.018c-.005-.037-.007-.075-.011-.112a.471.471 0 0 1-.009-.071v-.031l-.009-1.623c-.005.037.001.072.002.106z" class="cls-10" data-name="Path 9657" transform="translate(-245.652 -258.465)"/>
                <g id="Group_2880" data-name="Group 2880" transform="translate(4.886)">
                    <path id="Path_9658" d="M248.594 280.553a.491.491 0 0 0 0 .929l38.481 22.362a1.771 1.771 0 0 0 1.6 0l25.492-14.718a.491.491 0 0 0 .006-.929l-38.483-22.36a1.762 1.762 0 0 0-1.6 0z" class="cls-59" data-name="Path 9658" transform="translate(-248.261 -265.643)"/>
                </g>
            </g>
        </g>
        <g id="Group_2895" data-name="Group 2895" transform="translate(134.63)">
            <g id="Group_2886" class="cls-12" data-name="Group 2886">
                <g id="Group_2883" data-name="Group 2883" transform="translate(30.816 17.791)">
                    <path id="Path_9659" d="M179.24 239.136l31.887-18.531-.055 19.424-31.887 18.531z" class="cls-13" data-name="Path 9659" transform="translate(-179.185 -220.605)"/>
                </g>
                <g id="Group_2884" data-name="Group 2884" transform="translate(.055)">
                    <path id="Path_9660" d="M179.185 229.4l31.887-18.531 30.815 17.791L210 247.194z" class="cls-14" data-name="Path 9660" transform="translate(-179.185 -210.872)"/>
                </g>
                <g id="Group_2885" data-name="Group 2885" transform="translate(0 18.531)">
                    <path id="Path_9661" d="M227.5 238.8l-.055 19.424-30.815-17.79.055-19.424z" class="cls-15" data-name="Path 9661" transform="translate(-196.63 -221.01)"/>
                </g>
            </g>
            <g id="Group_2890" class="cls-12" data-name="Group 2890" transform="translate(37.771 2.144)">
                <g id="Group_2887" data-name="Group 2887" transform="translate(30.815 17.791)">
                    <path id="Path_9662" d="M158.6 240.309l31.887-18.531-.111 39.087-31.885 18.535z" class="cls-16" data-name="Path 9662" transform="translate(-158.491 -221.779)"/>
                </g>
                <g id="Group_2888" data-name="Group 2888" transform="translate(.111)">
                    <path id="Path_9663" d="M158.491 230.576l31.887-18.531 30.815 17.791-31.887 18.531z" class="cls-5" data-name="Path 9663" transform="translate(-158.491 -212.045)"/>
                </g>
                <g id="Group_2889" data-name="Group 2889" transform="translate(0 18.531)">
                    <path id="Path_9664" d="M206.862 239.974l-.111 39.087-30.816-17.791.111-39.087z" class="cls-17" data-name="Path 9664" transform="translate(-175.935 -222.183)"/>
                </g>
            </g>
            <g id="Group_2894" class="cls-12" data-name="Group 2894" transform="translate(75.427 1.261)">
                <g id="Group_2891" data-name="Group 2891" transform="translate(30.815 17.791)">
                    <path id="Path_9665" d="M138.03 239.826l31.887-18.526-.175 61.711-31.887 18.531z" class="cls-35" data-name="Path 9665" transform="translate(-137.855 -221.295)"/>
                </g>
                <g id="Group_2892" data-name="Group 2892" transform="translate(.175)">
                    <path id="Path_9666" d="M137.855 230.093l31.887-18.531 30.815 17.791-31.887 18.531z" class="cls-35" data-name="Path 9666" transform="translate(-137.855 -211.562)"/>
                </g>
                <g id="Group_2893" data-name="Group 2893" transform="translate(0 18.531)">
                    <path id="Path_9667" d="M186.29 239.491l-.175 61.711-30.815-17.791.175-61.711z" class="cls-35" data-name="Path 9667" transform="translate(-155.3 -221.7)"/>
                </g>
            </g>
        </g>
        <g id="Group_2917" data-name="Group 2917" transform="translate(149.215 92.629)">
            <g id="Group_2897" class="cls-12" data-name="Group 2897">
                <path id="Path_9668" d="M140.809 277.379c.009.026.013.051.022.075a2.913 2.913 0 0 0 .329.64c.026.038.049.077.077.113a3.763 3.763 0 0 0 .545.6 5.9 5.9 0 0 0 .492.366c.141.1.261.2.42.3l63.606 36.962a7.825 7.825 0 0 0 1.354.6c.168.058.342.11.517.159.225.062.451.123.685.17.272.057.548.108.83.143.069.009.135-.949.2-.941.38.042.766-.9 1.15-.9h.185c.382 0 .762.947 1.139.907.055-.005.112.473.168.466.373-.044.742.135 1.1.053.066-.015.13.09.194.073a9.12 9.12 0 0 0 .956-.23c.055-.02.111 0 .164-.026a7.4 7.4 0 0 0 1.058-.489l40.983-23.655a3.429 3.429 0 0 0 2.025-2.824l.02 7.377a3.43 3.43 0 0 1-2.023 2.83l-40.986 23.662a7.557 7.557 0 0 1-.994.477l-.055.018c-.053.02 1.106.037 1.053.055-.2.075.6.148.6.208v-.02.02c-1.828.033-1.442.057-1.556.084-.064.016-.737.033-.8.048s-.424.031-.486.044c-.223.048-.6.086-.83.119-.08.011-.238.016-.32.027-.055.005-.645.013-.7.018-.086.009-.79.022-.79.029v-.015.015c0 .018.547-.143.322-.143h-.395c-.1 0-.2.09-.305.086-.254-.007-.506.018-.759-.005-.029 0-.057.013-.088.009-.068-.007-.135-.009-.2-.016-.2-.026-.391-.042-.581-.077-.086-.015-.164-.042-.25-.058a10.075 10.075 0 0 1-.685-.17c-.119-.033-.247-.051-.362-.09-.055-.018-.1-.048-.154-.068a7.526 7.526 0 0 1-1.356-.6l-63.607-36.963-.084-.049c-.128-.077-.219-.166-.335-.249a5.357 5.357 0 0 1-.492-.364c-.015-.013-.035-.024-.048-.035a3.96 3.96 0 0 1-.426-.461c-.029-.035-.048-.071-.073-.106l-.077-.113c-.042-.064-.091-.126-.128-.192a2.686 2.686 0 0 1-.183-.389c-.007-.02-.011-.04-.016-.059l-.022-.077c-.027-.082.426-.166.409-.252-.026-.13.437-.261.437-.393v-.06l-.5-7.376c-.008.242-.447.479-.374.712z" class="cls-57" data-name="Path 9668" transform="translate(-140.691 -249.026)"/>
                <g id="Group_2896" data-name="Group 2896">
                    <path id="Path_9669" d="M142.835 286.369c-2.693 1.555-2.694 4.069-.02 5.624l63.607 36.963a10.658 10.658 0 0 0 9.7 0l40.978-23.661c2.681-1.546 2.707-4.062.033-5.617l-63.607-36.963a10.718 10.718 0 0 0-9.71-.007z" class="cls-50" data-name="Path 9669" transform="translate(-140.812 -261.548)"/>
                </g>
            </g>
            <g id="Group_2911" data-name="Group 2911" transform="translate(49.577 16.619)">
                <path id="Path_9670" d="M170.232 272.728l.049 7.917 4.407 3.844h3.933v-8.772z" class="cls-19" data-name="Path 9670" transform="translate(-163.66 -268.911)"/>
                <g id="Group_2898" data-name="Group 2898" transform="translate(6.621 10.936)">
                    <path id="Path_9671" d="M170.694 276.623l.033 11.193 7.463 4.337-.033-11.482z" class="cls-60" data-name="Path 9671" transform="translate(-170.694 -276.623)"/>
                </g>
                <path id="Path_9672" d="M161.36 275.2c.462-.183.993-.369 1.488-.51q.606-.173 1.236-.3.579-.121 1.173-.2c.38-.053.764-.1 1.152-.128s.775-.053 1.166-.062.808-.009 1.212.005a19.563 19.563 0 0 1 2.822.298 17.086 17.086 0 0 1 2.241.558 13.392 13.392 0 0 1 2.6 1.141l.144.086a9.219 9.219 0 0 1 1.5 1.109 7.007 7.007 0 0 1 .735.79 5.769 5.769 0 0 1 .475.707 4.785 4.785 0 0 1 .316.674 4.433 4.433 0 0 1 .192.665 4.305 4.305 0 0 1 .077.68v.1l.033 11.77v-.1a3.875 3.875 0 0 0-.077-.678 4.447 4.447 0 0 0-.192-.667 4.864 4.864 0 0 0-.314-.675 5.6 5.6 0 0 0-.477-.707 6.822 6.822 0 0 0-.735-.788 9.118 9.118 0 0 0-1.5-1.111l-.144-.086a13.373 13.373 0 0 0-2.594-1.141 17.235 17.235 0 0 0-2.241-.558c-.5-.09-1-.159-1.51-.21a21.202 21.202 0 0 0-1.314-.088 21.279 21.279 0 0 0-2.378.057c-.387.031-.771.075-1.152.13s-.788.124-1.173.2q-.631.132-1.236.3c-.494.141-.974.3-1.439.486a13.225 13.225 0 0 0-1.727.834l-.064-11.761a12.929 12.929 0 0 1 1.705-.82z" class="cls-18" data-name="Path 9672" transform="translate(-145.617 -267.868)"/>
                <g id="Group_2901" class="cls-12" data-name="Group 2901" transform="translate(10.589 14.983)">
                    <path id="Path_9673" d="M170.694 283.432l.033 5.2c-.005-1.766 1.161 3.031 3.495 1.683l-.033-11.483c-2.334 1.354-3.5 2.835-3.495 4.6z" class="cls-1" data-name="Path 9673" transform="translate(-170.694 -278.837)"/>
                    <g id="Group_2900" class="cls-61" data-name="Group 2900">
                        <g id="Group_2899" data-name="Group 2899" transform="translate(0 -.287)">
                            <path id="Path_9674" d="M170.694 283.562l.033 5.2c-.005-1.766 1.161 3.031 3.495 1.683l-.033-11.77c-2.334 1.347-3.5 3.117-3.495 4.882" class="cls-16" data-name="Path 9674" transform="translate(-170.694 -278.68)"/>
                        </g>
                    </g>
                </g>
                <path id="Path_9676" d="M174.833 281.367l.033 5.206c.009 3.3 2.181 6.6 6.518 9.121l-.033-5.2c-4.337-2.525-6.509-5.824-6.518-9.127z" class="cls-2" data-name="Path 9676" transform="translate(-174.833 -261.759)"/>
                <path id="Path_9677" d="M174.837 281.564a7.682 7.682 0 0 0 .146 1.287 8.44 8.44 0 0 0 .362 1.263 9.428 9.428 0 0 0 .6 1.274 10.625 10.625 0 0 0 .9 1.34 13.024 13.024 0 0 0 1.391 1.5 17.352 17.352 0 0 0 2.84 2.1c.09.055.192.115.285.17l.022 5.2-.274-.161a17.466 17.466 0 0 1-2.841-2.1 13 13 0 0 1-1.391-1.5 10.557 10.557 0 0 1-.9-1.34 9.033 9.033 0 0 1-.6-1.276 8.183 8.183 0 0 1-.364-1.263 7.843 7.843 0 0 1-.146-1.285v-.2l-.033-5.206a4.27 4.27 0 0 0 .003.197z" class="cls-17" data-name="Path 9677" transform="translate(-174.833 -261.759)"/>
                <g id="Group_2902" data-name="Group 2902" transform="translate(.006 10.936)">
                    <path id="Path_9678" d="M177.327 276.623c-8.787 5.072-8.821 12.728-.091 17.8l7.5-4.345c-4.608-2.678-4.584-6.73.055-9.41z" class="cls-5" data-name="Path 9678" transform="translate(-170.712 -276.623)"/>
                </g>
                <g id="Group_2903" data-name="Group 2903" transform="translate(6.518 26.147)">
                    <path id="Path_9679" d="M170.723 284.944l.033 7.788 7.512-4.337-.033-1.222z" class="cls-62" data-name="Path 9679" transform="translate(-170.723 -284.944)"/>
                </g>
                <g id="Group_2905" class="cls-12" data-name="Group 2905" transform="translate(6.518 26.146)">
                    <g id="Group_2904" class="cls-63" data-name="Group 2904">
                        <path id="Path_9680" d="M171.181 287.138a32.625 32.625 0 0 0 4.155 1.027 37.127 37.127 0 0 0 6.67.586l.033 7.789q-.664 0-1.327-.022a39.214 39.214 0 0 1-2.479-.165c-.965-.1-1.923-.229-2.862-.4a32.463 32.463 0 0 1-4.155-1.027 25.317 25.317 0 0 1-5.014-2.193l-.033-7.789a25.311 25.311 0 0 0 5.012 2.194z" class="cls-15" data-name="Path 9680" transform="translate(-166.169 -284.944)"/>
                    </g>
                </g>
                <g id="Group_2906" data-name="Group 2906" transform="translate(22.355 23.474)">
                    <path id="Path_9682" d="M166.15 289.961l.033 7.788.035-6.134-.033-8.133z" class="cls-64" data-name="Path 9682" transform="translate(-166.15 -283.482)"/>
                </g>
                <g id="Group_2907" data-name="Group 2907" transform="translate(6.518 21.811)">
                    <path id="Path_9683" d="M166.168 286.908A32.184 32.184 0 0 0 182 290.713l.035-6.133a17.022 17.022 0 0 1-8.361-2.009z" class="cls-14" data-name="Path 9683" transform="translate(-166.168 -282.572)"/>
                </g>
                <g id="Group_2909" class="cls-12" data-name="Group 2909" transform="translate(22.355 12.571)">
                    <g id="Group_2908" class="cls-65" data-name="Group 2908">
                        <path id="Path_9684" d="M154.832 290.559q1.108-.027 2.206-.117t2.179-.243q1.119-.159 2.214-.386c.8-.165 1.581-.356 2.347-.574q1.393-.4 2.7-.912a24.587 24.587 0 0 0 3.259-1.559c4.422-2.554 6.63-5.906 6.621-9.251l.033 11.77c.009 3.347-2.2 7.043-6.621 9.6a24.345 24.345 0 0 1-3.259 1.559 29.3 29.3 0 0 1-2.7.912q-1.152.326-2.349.574c-.727.152-1.468.28-2.214.386q-1.08.154-2.179.243c-.731.06-1.468.1-2.2.119q-.488.011-.976.011l-.033-12.115c.323-.004.649-.008.972-.017z" class="cls-18" data-name="Path 9684" transform="translate(-153.858 -277.517)"/>
                    </g>
                </g>
                <g id="Group_2910" data-name="Group 2910" transform="translate(6.571)">
                    <path id="Path_9686" d="M153.876 274.457l7.463 4.338c4.639-2.678 12.185-2.7 16.795-.026s4.584 7.023-.055 9.7a17.128 17.128 0 0 1-8.384 2.007l-.035 6.134a32.457 32.457 0 0 0 15.882-3.806c8.787-5.072 8.832-13.3.1-18.372s-22.977-5.048-31.766.025z" class="cls-66" data-name="Path 9686" transform="translate(-153.876 -270.64)"/>
                </g>
            </g>
            <g id="Group_2916" data-name="Group 2916" transform="translate(14.567 10.143)">
                <g id="Group_2913" data-name="Group 2913">
                    <g id="Group_2912" data-name="Group 2912">
                        <path id="Path_9687" d="M178.965 285.672c-.621.358-.625.932-.006 1.291a2.433 2.433 0 0 0 2.228 0l31.7-18.3c.623-.358.627-.93.007-1.29a2.433 2.433 0 0 0-2.228 0z" class="cls-67" data-name="Path 9687" transform="translate(-178.497 -267.097)"/>
                    </g>
                </g>
                <g id="Group_2914" data-name="Group 2914" transform="translate(21.912 2.126)">
                    <path id="Path_9688" d="M176.957 276.3a.684.684 0 0 0-.009 1.29 2.482 2.482 0 0 0 2.241.007l13.455-7.767a.686.686 0 0 0-.006-1.3 2.461 2.461 0 0 0-2.228 0z" class="cls-67" data-name="Path 9688" transform="translate(-176.495 -268.26)"/>
                </g>
                <g id="Group_2915" data-name="Group 2915" transform="translate(17.725 4.114)">
                    <path id="Path_9689" d="M175.1 281.77c-.623.36-.638.939-.02 1.3a2.465 2.465 0 0 0 2.241-.007l21.052-12.154c.623-.36.625-.932.007-1.292a2.448 2.448 0 0 0-2.23 0z" class="cls-67" data-name="Path 9689" transform="translate(-174.624 -269.348)"/>
                </g>
            </g>
        </g>
        <g id="Group_2927" data-name="Group 2927" transform="translate(39.41 22.23)">
            <g id="Group_2920" class="cls-12" data-name="Group 2920" transform="translate(22.596 7.229)">
                <g id="Group_2919" class="cls-68" data-name="Group 2919">
                    <g id="Group_2918" class="cls-12" data-name="Group 2918">
                        <path id="Path_9690" d="M253.065 228.395l.006 1.963a3.268 3.268 0 0 0 .333-1.406l-.005-1.963a3.293 3.293 0 0 1-.333 1.406" class="cls-6" data-name="Path 9690" transform="translate(-253.065 -226.989)"/>
                    </g>
                </g>
            </g>
            <path id="Path_9692" d="M236.618 227.162c.009.093.016.188.033.281.013.068.033.135.051.2a2.891 2.891 0 0 0 .084.3c.024.066.053.132.08.2.046.11.1.219.154.327s.122.23.2.345l.005 1.963c-.053-.082-.1-.165-.15-.247-.018-.033-.027-.066-.046-.1a4.377 4.377 0 0 1-.154-.327c-.018-.042-.044-.086-.06-.128-.007-.024-.011-.048-.02-.069a3 3 0 0 1-.084-.3c-.013-.051-.035-.1-.044-.154 0-.018 0-.035-.007-.051a3.216 3.216 0 0 1-.031-.283c-.005-.055-.018-.112-.02-.166v-.075l-.005-1.965c-.004.087.009.167.014.249z" class="cls-42" data-name="Path 9692" transform="translate(-184.187 -219.819)"/>
            <path id="Path_9693" d="M257.443 228.236c.007.1.015.19.031.283.011.06.027.121.042.179.02.08.04.159.068.238q.033.09.071.181c.031.075.066.15.1.223s.064.115.1.172c.049.08.1.159.161.238.037.051.075.1.115.152a3.745 3.745 0 0 0 .309.333c.029.027.053.057.084.084.053.049.115.1.174.143s.143.122.223.179c.064.048.135.091.2.137.1.064.186.128.289.188a7.067 7.067 0 0 0 .726.362c.084.036.177.066.263.1.177.069.355.139.541.2.058.018.119.033.177.051a9.673 9.673 0 0 0 .87.212c.168.033.34.058.51.084s.313.048.473.066c.186.02.375.035.565.048.117.009.234.018.353.024.252.011.5.013.76.009h.177c.316-.007.636-.026.956-.053.1-.009.2-.024.307-.035.258-.027.516-.055.773-.1l.005 1.963-.223.033c-.183.026-.367.042-.552.062-.1.011-.2.026-.305.035l-.057.005c-.292.024-.583.04-.872.047H264.655c-.219 0-.439.005-.654 0l-.108-.007c-.119-.005-.234-.015-.353-.024-.137-.009-.278-.013-.413-.027-.051 0-.1-.015-.152-.02-.161-.018-.316-.042-.473-.066-.108-.016-.221-.026-.327-.046-.062-.011-.121-.026-.183-.038l-.24-.051a8.198 8.198 0 0 1-.631-.163c-.058-.016-.119-.031-.177-.049l-.069-.02c-.163-.053-.314-.115-.47-.177-.088-.033-.179-.062-.265-.1a7.065 7.065 0 0 1-.726-.362l-.075-.046c-.077-.046-.141-.1-.212-.141s-.143-.091-.207-.139-.15-.117-.221-.177-.123-.1-.175-.144l-.022-.018c-.022-.02-.038-.044-.06-.064a4.068 4.068 0 0 1-.311-.335c-.015-.018-.037-.037-.051-.055a1.1 1.1 0 0 1-.064-.1 3.21 3.21 0 0 1-.161-.238c-.018-.029-.042-.057-.059-.086s-.026-.057-.04-.084q-.058-.112-.1-.225c-.015-.037-.037-.071-.049-.108s-.013-.049-.022-.073a2.807 2.807 0 0 1-.068-.238c-.011-.04-.027-.08-.035-.122 0-.018 0-.037-.007-.057a2.95 2.95 0 0 1-.031-.283c0-.042-.013-.082-.015-.122v-.071l-.005-1.963c.004.068.013.132.019.196z" class="cls-17" data-name="Path 9693" transform="translate(-251.915 -218.888)"/>
            <path id="Path_9694" d="M228.26 231.832c.221.037.442.068.665.093.192.024.384.046.576.062a15.56 15.56 0 0 0 1.145.049h.3c.329-.005.658-.02.978-.048.048 0 .093-.011.141-.015a12.678 12.678 0 0 0 1.067-.152c.3-.057.587-.121.866-.2l.048-.013a8.656 8.656 0 0 0 .892-.305l.1-.044a7.057 7.057 0 0 0 .782-.382 3.482 3.482 0 0 0 2.02-2.967l.006 1.963a3.483 3.483 0 0 1-2.02 2.967 7.059 7.059 0 0 1-.782.382 1.758 1.758 0 0 1-.1.042l-.068.031c-.261.1-.532.194-.813.274h-.011l-.048.013c-.219.06-.442.115-.671.163-.064.015-.13.022-.2.035s-.161.029-.243.042-.183.035-.278.048c-.179.026-.364.044-.547.062-.048 0-.093.011-.141.015l-.049.005c-.26.022-.521.037-.784.042H230.227c-.1 0-.2-.015-.294-.02a10.581 10.581 0 0 1-.43-.029c-.09-.007-.179-.009-.271-.016s-.2-.031-.305-.044a14.764 14.764 0 0 1-.665-.093c-.088-.013-.177-.02-.265-.037a16.452 16.452 0 0 1-.579-.115l-.005-1.963c.287.064.566.11.847.155z" class="cls-17" data-name="Path 9694" transform="translate(-168.03 -218.991)"/>
            <g id="Group_2921" data-name="Group 2921" transform="translate(0 21.681)">
                <path id="Path_9695" d="M257.473 234.9l.005 1.963 14.872 8.637-.006-1.963z" class="cls-17" data-name="Path 9695" transform="translate(-257.473 -234.895)"/>
            </g>
            <g id="Group_2922" data-name="Group 2922" transform="translate(59.498 21.683)">
                <path id="Path_9696" d="M224.653 243.768l.006 1.963 15.366-8.871-.006-1.963z" class="cls-17" data-name="Path 9696" transform="translate(-224.653 -234.896)"/>
            </g>
            <path id="Path_9697" d="M253.192 242.149c.009.062.009.122.022.183a3.432 3.432 0 0 0 .1.344c.018.062.031.124.055.188s.064.137.093.2c.051.115.1.228.161.342a4.663 4.663 0 0 0 .3.466l.064.086a5.427 5.427 0 0 0 .395.47c.022.024.048.046.068.068.137.141.281.28.439.415l.077.068c.172.144.355.285.55.424l.1.071a10.137 10.137 0 0 0 1.331.783c.071.035.146.068.219.1.155.073.314.146.475.214.086.037.172.071.26.106.155.062.311.121.47.177.088.031.176.062.265.091.117.04.238.075.356.112a15.385 15.385 0 0 0 .92.249c.2.048.395.09.594.128.1.02.208.042.313.06.36.062.722.113 1.082.15.1.011.188.016.282.024.21.018.42.033.631.042.126.006.25.007.376.011h.457c.152 0 .272-.007.408-.013s.256-.011.382-.02c.143-.009.281-.024.42-.038.115-.011.23-.022.342-.037.139-.018.276-.04.413-.064.112-.018.223-.037.333-.058s.245-.053.366-.08.252-.059.373-.091c.1-.027.192-.059.287-.088.164-.051.327-.1.486-.164.124-.046.247-.1.366-.146a6.875 6.875 0 0 0 .723-.357 3.476 3.476 0 0 0 2.016-2.967l.006 1.963a3.476 3.476 0 0 1-2.016 2.967c-.175.1-.36.194-.548.281l-.176.075c-.077.033-.15.069-.228.1-.044.016-.093.029-.137.046-.159.059-.322.113-.486.165-.064.018-.121.044-.185.062-.033.009-.068.015-.1.024-.121.035-.247.062-.371.091-.088.022-.172.046-.26.064-.035.007-.071.011-.108.018-.11.022-.221.04-.333.059-.093.015-.183.035-.278.048-.044.007-.09.009-.135.016-.111.015-.227.026-.342.037-.086.009-.172.022-.26.029-.053.006-.106.006-.161.009a11.9 11.9 0 0 1-.382.02c-.082 0-.161.011-.243.013h-.867c-.044 0-.088-.007-.132-.009-.21-.009-.42-.024-.631-.042-.075-.007-.15-.007-.225-.015l-.057-.009c-.36-.037-.722-.088-1.082-.15l-.1-.015c-.073-.013-.144-.031-.217-.046a19.172 19.172 0 0 1-.936-.212 14.615 14.615 0 0 1-.578-.165c-.071-.022-.144-.038-.216-.062-.048-.015-.093-.033-.141-.049-.09-.029-.177-.06-.265-.091a14.657 14.657 0 0 1-.47-.177c-.088-.035-.174-.069-.26-.106a14.59 14.59 0 0 1-.475-.214c-.073-.035-.148-.068-.219-.1a11.119 11.119 0 0 1-.658-.353l-.146-.086a9.762 9.762 0 0 1-.526-.344l-.1-.071c-.2-.139-.378-.28-.55-.424l-.077-.068-.17-.148c-.1-.088-.181-.177-.267-.267-.022-.022-.048-.044-.069-.068a5.95 5.95 0 0 1-.335-.388c-.022-.027-.04-.055-.06-.082l-.064-.086a4.88 4.88 0 0 1-.291-.446l-.009-.02c-.064-.113-.11-.227-.161-.342-.027-.064-.066-.128-.09-.194v-.011c-.024-.064-.037-.126-.055-.19-.033-.106-.071-.212-.093-.32v-.022c-.013-.06-.013-.122-.022-.183a2.769 2.769 0 0 1-.033-.3v-.077l-.006-1.961a2.865 2.865 0 0 0 .026.377z" class="cls-17" data-name="Path 9697" transform="translate(-247.794 -207.516)"/>
            <g id="Group_2926" data-name="Group 2926">
                <path id="Path_9698" d="M235.943 238.374c.247-.143.5-.274.76-.4.086-.042.175-.079.263-.117.177-.082.355-.161.537-.234.026-.011.049-.024.077-.033.163-.066.331-.124.5-.183l.132-.048c.227-.077.457-.15.689-.216l.042-.011c.322-.091.649-.17.976-.239l.071-.018c.077-.015.155-.026.232-.04.2-.038.408-.075.612-.106.048-.007.093-.018.141-.024.077-.011.154-.016.23-.027.164-.02.329-.038.5-.055.06-.005.122-.015.183-.02s.139-.007.207-.011c.154-.011.307-.018.459-.026.069 0 .139-.009.208-.011s.124 0 .186 0h.671c.053 0 .1.007.157.011.165.007.325.018.486.031.077.007.157.009.234.016.037 0 .073.011.11.015.227.026.451.057.671.093.057.009.115.015.17.024l.04.009c.08.015.159.035.238.051.157.031.314.066.466.1.09.022.176.049.265.075s.2.053.3.084c.031.009.058.024.09.033.164.057.324.119.483.183.077.031.157.06.232.093a6.634 6.634 0 0 1 .654.331l.082.049c.075.044.141.093.212.141s.137.088.2.133.15.121.223.181c.057.046.119.091.17.141l.022.018c.024.02.04.044.064.066a4.2 4.2 0 0 1 .3.329c.016.02.037.037.053.057s.04.064.064.1q.085.118.159.236c.016.029.04.057.057.086s.026.057.04.086c.038.073.073.148.1.223.016.037.037.071.049.106s.013.049.022.075c.027.079.048.157.068.236.011.04.026.08.035.121 0 .02 0 .04.007.059.016.093.024.188.031.283 0 .04.013.08.015.122v.073l.005 1.963c0-.066-.009-.13-.015-.2-.007-.1-.015-.19-.031-.283-.011-.06-.027-.121-.042-.179-.02-.079-.04-.159-.068-.236-.02-.06-.046-.121-.071-.181s-.066-.15-.1-.223-.062-.115-.1-.172q-.074-.118-.159-.236a3.658 3.658 0 0 0-.117-.152 4.2 4.2 0 0 0-.3-.329c-.029-.027-.055-.057-.086-.084a1.63 1.63 0 0 0-.17-.141c-.073-.06-.144-.122-.223-.181s-.135-.09-.2-.135c-.1-.064-.188-.128-.292-.188a6.637 6.637 0 0 0-.654-.331c-.075-.033-.155-.062-.232-.093a9.481 9.481 0 0 0-.483-.183 9.122 9.122 0 0 0-.386-.117c-.088-.026-.176-.053-.265-.075a12.722 12.722 0 0 0-.466-.106c-.079-.016-.157-.035-.238-.049s-.141-.02-.21-.033a11.782 11.782 0 0 0-.671-.093c-.113-.013-.229-.022-.344-.031a12.795 12.795 0 0 0-.486-.031c-.126-.007-.252-.009-.38-.013h-.448q-.2 0-.395.011c-.152.006-.305.015-.459.026-.13.009-.26.018-.389.031-.165.016-.331.035-.5.055-.124.016-.247.033-.371.051-.2.031-.409.068-.612.106-.1.02-.2.037-.3.058a14.086 14.086 0 0 0-2.952.965c-.088.038-.177.075-.263.117-.26.126-.514.258-.76.4-2.095 1.208-3.175 2.747-3.171 4.177l-.005-1.963c-.011-1.426 1.07-2.963 3.164-4.173z" class="cls-17" data-name="Path 9698" transform="translate(-190.164 -211.84)"/>
                <g id="Group_2923" data-name="Group 2923" transform="translate(22.439 34.721)">
                    <path id="Path_9699" d="M245.2 242.029l.006 1.963 14.872 8.643-.006-1.963z" class="cls-17" data-name="Path 9699" transform="translate(-245.197 -242.029)"/>
                </g>
                <g id="Group_2924" data-name="Group 2924">
                    <path id="Path_9700" d="M233.342 228.011c-3.716 2.144-4.244 5.319-1.185 7.1a11.845 11.845 0 0 0 7.452.971l-14.954 8.633 14.872 8.642a11.928 11.928 0 0 0-7.487.969c-3.082 1.779-2.585 4.957 1.1 7.1s9.174 2.442 12.256.664c1.9-1.1 2.437-2.736 1.694-4.334l14.872 8.644 15.363-8.871c-2.943.581-6.047.32-8.077-.861-3.058-1.777-2.532-4.955 1.183-7.1s9.2-2.44 12.261-.662c2.031 1.179 2.471 2.978 1.457 4.683l15.365-8.873-15.477-8.993c3.029.665 6.288.426 8.406-.8 3.078-1.777 2.581-4.955-1.109-7.1s-9.172-2.442-12.25-.665c-2.119 1.225-2.546 3.113-1.4 4.868l-15.477-9-14.956 8.635c.753-1.592.238-3.224-1.651-4.321-3.058-1.771-8.547-1.473-12.258.671z" class="cls-5" data-name="Path 9700" transform="translate(-224.656 -223.034)"/>
                </g>
                <g id="Group_2925" data-name="Group 2925" transform="translate(37.311 34.494)">
                    <path id="Path_9701" d="M236.792 250.775l.005 1.963 15.363-8.87-.006-1.963z" class="cls-17" data-name="Path 9701" transform="translate(-236.792 -241.905)"/>
                </g>
            </g>
        </g>
    </g>
</svg>
