<svg xmlns="http://www.w3.org/2000/svg" width="74.422" height="73.384" viewBox="0 0 74.422 73.384">
    <defs>
        <style>
            .cls-1{fill:#00bce3}
        </style>
    </defs>
    <g id="authentication">
        <g id="Group_2399" data-name="Group 2399">
            <path id="Path_2071" d="M58.135 34.186l.007-19.652L29.071 0 0 14.535V33.79a36 36 0 0 0 16.053 30l13.018 8.675L39.1 65.786a19.752 19.752 0 1 0 19.036-31.6zM29.071 69.675l-11.727-7.817A33.672 33.672 0 0 1 2.326 33.79V15.972L29.071 2.6l26.745 13.372v17.947c-.386-.023-.769-.059-1.163-.059s-.778.036-1.163.059V17.407L29.071 5.2 4.651 17.408V33.79a31.36 31.36 0 0 0 13.983 26.131l10.437 6.954 7.607-5.069a19.7 19.7 0 0 0 1.1 2.066zm6.737-10.083l-6.737 4.488-9.145-6.094c-.451-.3-.889-.618-1.32-.942V46.651H16.28v8.442a29.049 29.049 0 0 1-3.489-3.872v-6.758a3.489 3.489 0 0 1 2.639-3.382l7.886-1.981a5.808 5.808 0 0 0 4.592 5.105v4.768h2.326v-4.764a5.805 5.805 0 0 0 4.591-5.109L40 40.4a19.668 19.668 0 0 0-4.193 19.187zM23.257 24.557h3.214a12.249 12.249 0 0 0 5.192-1.163h.315l2.907 3.876v4.846l-3.876 2.907h-3.877l-3.876-2.907zm-2.229-2.326a4.549 4.549 0 0 1 2.491-3.361 11.743 11.743 0 0 1 8.165-.514l.267.386h1.771a1.163 1.163 0 0 1 1.163 1.163v3.489l-1.744-2.326h-2.019l-.245.122a9.916 9.916 0 0 1-4.406 1.041zm11.531 14.536v1.744a3.489 3.489 0 1 1-6.977 0v-1.744l.776.581h5.426zm2.326-.045v-1.7l2.326-1.744V19.906a3.488 3.488 0 0 0-3.489-3.489h-.773c-1.682-1.023-5.871-1.229-8.838-.3a7.236 7.236 0 0 0-5.506 7.279v1.163h2.326v8.721l2.326 1.744v1.693l-8.393 2.11a5.8 5.8 0 0 0-4.4 5.637V47.6a29.04 29.04 0 0 1-3.487-13.81V18.845L29.071 7.8l22.094 11.045V33.79c0 .133-.008.266-.009.4a19.676 19.676 0 0 0-9.2 4.31zm19.769 34.349A17.443 17.443 0 1 1 72.1 53.628a17.443 17.443 0 0 1-17.446 17.443zm0 0" class="cls-1" data-name="Path 2071"/>
        </g>
        <path id="Path_2072" d="M416 136.945h13.954v2.326H416zm0 0" class="cls-1" data-name="Path 2072" transform="translate(-355.532 -117.039)"/>
        <path id="Path_2073" d="M416 168.945h9.3v2.326H416zm0 0" class="cls-1" data-name="Path 2073" transform="translate(-355.532 -144.388)"/>
        <path id="Path_2074" d="M416 200.945h4.651v2.326H416zm0 0" class="cls-1" data-name="Path 2074" transform="translate(-355.532 -171.737)"/>
        <path id="Path_2075" d="M283.7 295.609l-4.11-4.111-6.578 6.577 10.688 10.689 18.089-18.089-6.579-6.577zm0 9.867l-7.4-7.4 3.29-3.289 4.11 4.11 11.512-11.512 3.29 3.289zm0 0" class="cls-1" data-name="Path 2075" transform="translate(-233.325 -242.803)"/>
    </g>
</svg>
