<svg xmlns="http://www.w3.org/2000/svg" width="70.099" height="65.607" viewBox="0 0 70.099 65.607">
    <defs>
        <style>
            .cls-1{fill:#00bce3}
        </style>
    </defs>
    <g id="banner" transform="translate(0 -16.404)">
        <path id="Path_2098" d="M303.3 156.891a1.027 1.027 0 0 0-1.864 0l-2.57 5.555a1.027 1.027 0 0 0 1.864.862l.079-.172h3.118l.079.172a1.027 1.027 0 1 0 1.864-.862zm-1.541 4.192l.609-1.316.609 1.316z" class="cls-1" data-name="Path 2098" transform="translate(-257.857 -120.738)"/>
        <path id="Path_2099" d="M366.633 155.69h-1.907a1.027 1.027 0 0 0-1.027 1.027v5.638a1.027 1.027 0 0 0 1.027 1.027h1.907a3.846 3.846 0 1 0 0-7.692zm0 5.638h-.88v-3.584h.88a1.792 1.792 0 1 1 0 3.584z" class="cls-1" data-name="Path 2099" transform="translate(-313.905 -120.216)"/>
        <path id="Path_2100" d="M99.069 73.6a1.027 1.027 0 0 0-1.027-1.027H45.718a1.027 1.027 0 0 0 0 2.054h52.324a1.027 1.027 0 0 0 1.027-1.027z" class="cls-1" data-name="Path 2100" transform="translate(-38.601 -48.482)"/>
        <path id="Path_2101" d="M71.309 114.058H45.718a1.027 1.027 0 0 0 0 2.054h25.591a1.027 1.027 0 0 0 0-2.054z" class="cls-1" data-name="Path 2101" transform="translate(-38.601 -84.284)"/>
        <path id="Path_2102" d="M71.309 155.54H45.718a1.027 1.027 0 0 0 0 2.054h25.591a1.027 1.027 0 0 0 0-2.054z" class="cls-1" data-name="Path 2102" transform="translate(-38.601 -120.087)"/>
        <path id="Path_2103" d="M71.309 197.021H45.718a1.027 1.027 0 0 0 0 2.054h25.591a1.027 1.027 0 0 0 0-2.054z" class="cls-1" data-name="Path 2103" transform="translate(-38.601 -155.889)"/>
        <path id="Path_2104" d="M71.309 238.5H45.718a1.027 1.027 0 0 0 0 2.054h25.591a1.027 1.027 0 0 0 0-2.054z" class="cls-1" data-name="Path 2104" transform="translate(-38.601 -191.69)"/>
        <path id="Path_2105" d="M69.481 52.953l-2.287-1.692V22.112a5.715 5.715 0 0 0-5.708-5.712H14.923a1.027 1.027 0 0 0 0 2.054h46.563a3.658 3.658 0 0 1 3.654 3.654v27.63l-4.7-3.476a1.023 1.023 0 0 0 .027-.231V30.8a1.027 1.027 0 0 0-1.027-1.027h-21.4a1.027 1.027 0 0 0-1.022 1.027v17.039a1.027 1.027 0 0 0 1.027 1.027h18.72v5.213H2.054V22.113a3.659 3.659 0 0 1 3.655-3.655h3.464a1.027 1.027 0 0 0 0-2.054H5.708A5.715 5.715 0 0 0 0 22.113v39.648a5.715 5.715 0 0 0 5.709 5.709H26.8v7.657h-5.692c-4.432 0-4.445 6.885 0 6.885h18.185a1.027 1.027 0 0 0 0-2.054H21.108a1.39 1.39 0 0 1 0-2.778h24.978a1.39 1.39 0 0 1 0 2.778h-.768a1.027 1.027 0 0 0 0 2.054h.768c4.432 0 4.445-6.885 0-6.885h-5.541v-7.658h20.94a5.715 5.715 0 0 0 5.709-5.709v-6.045h1.4a1.53 1.53 0 0 0 .887-2.762zm-6.884.71a1.581 1.581 0 0 0-1.217.686l-2.57 3.487V47.615l8.177 6.049zm-23.526-6.851V31.828h19.343v13.211a1.523 1.523 0 0 0-1.664 1.525v.248zm-.58 28.315h-9.638v-7.658h9.638zM65.14 61.761a3.659 3.659 0 0 1-3.655 3.655H5.708a3.659 3.659 0 0 1-3.655-3.655v-5.629h54.756v3.35a1.549 1.549 0 0 0 2.778.879l3.3-4.6h2.25v5.995z" class="cls-1" data-name="Path 2105"/>
    </g>
</svg>
