<svg xmlns="http://www.w3.org/2000/svg" width="56.446" height="64.808" viewBox="0 0 56.446 64.808">
    <defs>
        <style>
            .cls-1{fill:#00bce3}
        </style>
    </defs>
    <g id="development_1_" data-name="development (1)" transform="translate(-5 -1)">
        <path id="Path_10909" d="M61.446 49.083a14.653 14.653 0 0 0-10.083-13.9 8.34 8.34 0 0 0-5.847-15.257c.059-.169.133-.334.184-.506l2.157-.508v-6.5L45.7 11.9a12.812 12.812 0 0 0-1.016-2.449l1.166-1.885L41.29 3l-1.884 1.171a12.94 12.94 0 0 0-2.45-1.016L36.449 1H30l-.51 2.155a12.9 12.9 0 0 0-2.45 1.016L25.155 3l-4.56 4.567 1.165 1.884a12.947 12.947 0 0 0-1.016 2.449l-2.155.509v6.5l2.156.508c.051.17.125.336.184.5a8.253 8.253 0 0 0-1.3-.112 8.356 8.356 0 0 0-4.551 15.368A14.653 14.653 0 0 0 5 49.083v4.181h16.23a14.541 14.541 0 0 0-2.641 8.362v4.181h29.268v-4.18a14.541 14.541 0 0 0-2.641-8.362h16.23zM48.9 37.585c0 1.7-.957 3.136-2.091 3.136s-2.091-1.436-2.091-3.136a4.2 4.2 0 0 1 .1-.882 11.822 11.822 0 0 1 3.975.01 4.241 4.241 0 0 1 .107.872zm-15.677 9.408a6.272 6.272 0 1 1 6.272-6.272 6.278 6.278 0 0 1-6.272 6.272zm-8.137-9.2c.089.043.179.083.267.128a8 8 0 0 0-.392 4.028l-1.392 3.064-2.534-3.166zm8.137-5.433a8.36 8.36 0 0 0-6.933 3.693 14.615 14.615 0 0 0-2.1-.87 8.359 8.359 0 0 0 3.809-7c0-.194-.016-.385-.029-.575a13.1 13.1 0 0 0 1.523.563l.507 2.15h6.452l.507-2.155a13.1 13.1 0 0 0 1.523-.563c-.014.19-.029.38-.029.575a8.358 8.358 0 0 0 3.809 7 14.539 14.539 0 0 0-2.1.871 8.362 8.362 0 0 0-6.934-3.694zm19.861-4.181a6.272 6.272 0 1 1-6.272-6.272 6.278 6.278 0 0 1 6.272 6.272zM22.606 18.3l-.153-.622-1.774-.418v-3.197l1.773-.417.153-.622a10.831 10.831 0 0 1 1.265-3.051l.331-.547-.96-1.55 2.221-2.221 1.55.96.547-.332a10.835 10.835 0 0 1 3.052-1.265l.622-.153.419-1.774h3.14l.417 1.773.622.153a10.866 10.866 0 0 1 3.052 1.265l.547.332 1.55-.96 2.22 2.221-.959 1.551.331.547a10.831 10.831 0 0 1 1.265 3.051l.153.622 1.774.418v3.194l-1.773.417-.153.622a10.772 10.772 0 0 1-.988 2.517 8.416 8.416 0 0 0-3.73 4.08l-.238.144a10.835 10.835 0 0 1-3.049 1.262l-.622.153-.417 1.773h-3.14l-.417-1.774-.622-.153a10.855 10.855 0 0 1-3.052-1.265l-.238-.144a8.414 8.414 0 0 0-3.73-4.081 10.68 10.68 0 0 1-.989-2.509zm-9.244 9.88a6.272 6.272 0 1 1 6.272 6.272 6.278 6.278 0 0 1-6.272-6.272zm9.576 8.807l-3.3 3.3-3.295-3.295a12.349 12.349 0 0 1 6.6-.009zm-4.7 4.86L15.7 45.01l-2.918-6.42a12.537 12.537 0 0 1 1.409-.79zM7.091 49.083a12.5 12.5 0 0 1 4-9.159l4.114 9.051 4.428-5.536 4.428 5.536 1.885-4.147a8.424 8.424 0 0 0 2.724 2.9A14.637 14.637 0 0 0 23 51.175H12.317V44.9h-2.091v6.272H7.091zm26.132 0a12.45 12.45 0 0 1 5.1 1.094l-5.1 11.923-5.1-11.926a12.466 12.466 0 0 1 5.1-1.091zM20.679 61.627a12.537 12.537 0 0 1 5.6-10.438l5.358 12.529h-5.731v-6.272h-2.091v6.272h-3.136zm25.087 2.091h-3.135v-6.272H40.54v6.272h-5.732l5.358-12.529a12.537 12.537 0 0 1 5.6 10.438zm13.589-12.544h-3.136V44.9h-2.09v6.272H43.445a14.644 14.644 0 0 0-5.671-3.447 8.31 8.31 0 0 0 3.319-9.8 12.32 12.32 0 0 1 1.567-.673c-.006.112-.029.224-.029.337 0 2.882 1.875 5.226 4.181 5.226s4.181-2.345 4.181-5.226c0-.109-.022-.215-.028-.324a12.555 12.555 0 0 1 8.391 11.822z" class="cls-1" data-name="Path 10909"/>
        <path id="Path_10910" d="M32.181 19.362A4.181 4.181 0 1 0 28 15.181a4.185 4.185 0 0 0 4.181 4.181zm0-6.272a2.091 2.091 0 1 1-2.091 2.091 2.093 2.093 0 0 1 2.091-2.09z" class="cls-1" data-name="Path 10910" transform="translate(1.042 .453)"/>
        <path id="Path_10911" d="M32.362 23.725A8.362 8.362 0 1 0 24 15.362a8.372 8.372 0 0 0 8.362 8.363zm0-14.634a6.272 6.272 0 1 1-6.272 6.272 6.278 6.278 0 0 1 6.272-6.272z" class="cls-1" data-name="Path 10911" transform="translate(.861 .272)"/>
    </g>
</svg>
