<svg xmlns="http://www.w3.org/2000/svg" width="65.784" height="65.784" viewBox="0 0 65.784 65.784">
    <defs>
        <style>
            .cls-1{fill:#00bce3}
        </style>
    </defs>
    <g id="funds" transform="translate(-1 -1)">
        <path id="Path_10912" d="M15.183 51.61a1.061 1.061 0 0 1-1.061-1.061H12a3.187 3.187 0 0 0 3.183 3.183v2.122h2.122v-2.122h3.183v-3.183a3.187 3.187 0 0 0-3.183-3.183h-2.122a1.061 1.061 0 0 1-1.061-1.061v-1.061h3.183a1.061 1.061 0 0 1 1.061 1.061h2.122a3.187 3.187 0 0 0-3.183-3.183V41h-2.122v2.122H12v3.183a3.187 3.187 0 0 0 3.183 3.183h2.122a1.061 1.061 0 0 1 1.061 1.061v1.061z" class="cls-1" data-name="Path 10912" transform="translate(.671 2.441)"/>
        <path id="Path_10913" d="M16.671 57.975a9.548 9.548 0 0 1-7.387-15.6L7.643 41.03a11.67 11.67 0 0 0 16.424 16.424l-1.345-1.641a9.566 9.566 0 0 1-6.051 2.162z" class="cls-1" data-name="Path 10913" transform="translate(.244 2.443)"/>
        <path id="Path_10914" d="M9.03 39.643l1.345 1.641a9.548 9.548 0 0 1 13.437 13.437l1.641 1.345A11.67 11.67 0 0 0 9.03 39.643z" class="cls-1" data-name="Path 10914" transform="translate(.49 2.197)"/>
        <path id="Path_10915" d="M64.662 39.2a2.124 2.124 0 0 0 2.122-2.122v-4.247a2.124 2.124 0 0 0-2.122-2.122h-17.6L57.871 19.9l4.472 4.471 3.672-18.358-18.359 3.672 4.471 4.471-10.808 10.809-7.427-7.427-2.561 2.562H25.4a9.531 9.531 0 0 0-7.427 3.561v-5.684h5.305a9.56 9.56 0 0 0 9.549-9.549V7.366H25.4a9.531 9.531 0 0 0-7.427 3.561v-.378A9.56 9.56 0 0 0 8.427 1H1v1.061a9.56 9.56 0 0 0 9.549 9.549h5.305v5.683a9.531 9.531 0 0 0-7.427-3.561H1v1.061a9.56 9.56 0 0 0 9.549 9.549h5.305v10.665a15.922 15.922 0 1 0 9.6 2.454l8.435-8.435 3.263 3.263a2.079 2.079 0 0 0-.08.542v4.244A2.124 2.124 0 0 0 39.2 39.2h1.061v2.744L38.63 43.57a5.272 5.272 0 0 0-1.554 3.752v14.157a5.311 5.311 0 0 0 5.305 5.305h19.1a5.311 5.311 0 0 0 5.305-5.305V47.322a5.272 5.272 0 0 0-1.556-3.752l-1.63-1.629V39.2zM25.4 22.221h5.23a7.438 7.438 0 0 1-7.352 6.366h-5.23a7.439 7.439 0 0 1 7.352-6.366zm0-12.732h5.23a7.438 7.438 0 0 1-7.352 6.366h-5.23A7.439 7.439 0 0 1 25.4 9.488zm-14.854 0A7.439 7.439 0 0 1 3.2 3.122h5.23a7.439 7.439 0 0 1 7.352 6.366zm0 12.732A7.439 7.439 0 0 1 3.2 15.854h5.23a7.439 7.439 0 0 1 7.352 6.366zm10.174 8.488l-2.744 2.744v-2.744zm9.989 20.16a13.793 13.793 0 1 1-13.793-13.794 13.809 13.809 0 0 1 13.793 13.794zM23.514 36.4a15.736 15.736 0 0 0-4.234-1.254l4.464-4.464a9.547 9.547 0 0 0 9.063-9.063l1.084-1.084 7.427 7.427 13.81-13.805-3.168-3.168 11.35-2.27-2.27 11.35-3.169-3.169-13.808 13.809H39.2a2.079 2.079 0 0 0-.542.08l-4.763-4.763zM39.2 32.831h25.462v4.244H39.2zm6.366 18.038v-2.122a1.061 1.061 0 0 1 1.061-1.061h1.061v2.122h2.122v-2.122h2.12v2.122h2.122v-2.122h2.122v2.122H58.3v-2.122h1.061a1.061 1.061 0 0 1 1.061 1.061v2.122a1.061 1.061 0 0 1-1.061 1.061H46.625a1.061 1.061 0 0 1-1.062-1.061zM44.5 54.052h1.061v2.122h2.122v-2.122h2.122v2.122h2.125v-2.122h2.122v2.122h2.122v-2.122h1.061a1.061 1.061 0 0 1 1.065 1.061v2.122a1.061 1.061 0 0 1-1.065 1.065H44.5a1.061 1.061 0 0 1-1.061-1.061v-2.126a1.061 1.061 0 0 1 1.061-1.061zm2.122 10.61a1.061 1.061 0 0 1-1.059-1.062v-2.121a1.061 1.061 0 0 1 1.061-1.061h1.061v2.122h2.122v-2.122h2.123v2.122h2.122v-2.122h2.122v2.122H58.3v-2.122h1.061a1.061 1.061 0 0 1 1.061 1.061V63.6a1.061 1.061 0 0 1-1.061 1.061zm17.1-19.592a3.162 3.162 0 0 1 .933 2.252v14.157a3.176 3.176 0 0 1-2.272 3.034 3.123 3.123 0 0 0 .15-.911v-2.123a3.177 3.177 0 0 0-2.355-3.06 3.166 3.166 0 0 0 .233-1.184v-2.122a3.166 3.166 0 0 0-.233-1.184 3.178 3.178 0 0 0 2.355-3.06v-2.122a3.187 3.187 0 0 0-3.183-3.183H46.625a3.187 3.187 0 0 0-3.183 3.183v2.122a3.166 3.166 0 0 0 .233 1.184 3.177 3.177 0 0 0-2.355 3.06v2.122a3.177 3.177 0 0 0 2.355 3.06 3.166 3.166 0 0 0-.233 1.184V63.6a3.147 3.147 0 0 0 .2 1.061H42.38a3.187 3.187 0 0 1-3.18-3.182V47.322a3.165 3.165 0 0 1 .933-2.252l2.25-2.25V39.2h19.1v3.62z" class="cls-1" data-name="Path 10915"/>
    </g>
</svg>
