<svg xmlns="http://www.w3.org/2000/svg" width="75.361" height="72.693" viewBox="0 0 75.361 72.693">
    <defs>
        <style>
            .cls-1{fill:#00bce3}
        </style>
    </defs>
    <g id="world" transform="translate(0 -6.948)">
        <g id="Group_5834" data-name="Group 5834" transform="translate(10.097 67.422)">
            <g id="Group_5833" data-name="Group 5833">
                <path id="Path_10916" d="M56.845 324.224q-.036-.032-.075-.062a32.875 32.875 0 0 1-2.243-2.028 1.149 1.149 0 0 0-1.621 1.629 29.394 29.394 0 0 0 2.4 2.174 1.152 1.152 0 0 0 1.542-1.713z" class="cls-1" data-name="Path 10916" transform="translate(-52.569 -321.801)"/>
            </g>
        </g>
        <g id="Group_5836" data-name="Group 5836" transform="translate(.237 35.614)">
            <g id="Group_5835" data-name="Group 5835">
                <path id="Path_10917" d="M3.308 156.262a1.152 1.152 0 0 0-1.528.984 34.821 34.821 0 0 0-.538 3.188 1.152 1.152 0 0 0 .976 1.291h.146a1.152 1.152 0 0 0 1.145-1.014c.123-1 .292-2.005.507-2.981a1.152 1.152 0 0 0-.708-1.468z" class="cls-1" data-name="Path 10917" transform="translate(-1.232 -156.197)"/>
            </g>
        </g>
        <g id="Group_5838" data-name="Group 5838" transform="translate(4.831 60.653)">
            <g id="Group_5837" data-name="Group 5837">
                <path id="Path_10918" d="M28.963 289.645a33.772 33.772 0 0 1-1.667-2.52 1.152 1.152 0 0 0-1.58-.4 1.152 1.152 0 0 0-.4 1.58 35.343 35.343 0 0 0 1.79 2.7 1.152 1.152 0 0 0 1.859-1.36z" class="cls-1" data-name="Path 10918" transform="translate(-25.15 -286.562)"/>
            </g>
        </g>
        <g id="Group_5840" data-name="Group 5840" transform="translate(1.359 52.779)">
            <g id="Group_5839" data-name="Group 5839">
                <path id="Path_10919" d="M10.343 249.256a32.9 32.9 0 0 1-.991-2.858 1.153 1.153 0 0 0-1.428-.786l-.032.01a1.152 1.152 0 0 0-.768 1.429c.307 1.03.661 2.059 1.06 3.073a1.163 1.163 0 0 0 2.159-.868z" class="cls-1" data-name="Path 10919" transform="translate(-7.076 -245.566)"/>
            </g>
        </g>
        <g id="Group_5842" data-name="Group 5842" transform="translate(2.364 27.654)">
            <g id="Group_5841" data-name="Group 5841">
                <path id="Path_10920" d="M15.258 114.877a1.153 1.153 0 0 0-1.548.511 33.63 33.63 0 0 0-1.321 2.958 1.151 1.151 0 0 0 2.141.843v-.006a27.712 27.712 0 0 1 1.237-2.758 1.153 1.153 0 0 0-.509-1.548z" class="cls-1" data-name="Path 10920" transform="translate(-12.309 -114.753)"/>
            </g>
        </g>
        <g id="Group_5844" data-name="Group 5844" transform="translate(0 44.326)">
            <g id="Group_5843" data-name="Group 5843">
                <path id="Path_10921" d="M2.552 205.679c-.123-1-.207-2.013-.246-3.012a1.153 1.153 0 0 0-2.3.085 25.257 25.257 0 0 0 .261 3.227 1.152 1.152 0 0 0 1.114.991h.177a1.153 1.153 0 0 0 .994-1.291z" class="cls-1" data-name="Path 10921" transform="translate(0 -201.553)"/>
            </g>
        </g>
        <g id="Group_5846" data-name="Group 5846" transform="translate(27.608 8.961)">
            <g id="Group_5845" data-name="Group 5845">
                <path id="Path_10922" d="M149.255 18.474a1.158 1.158 0 0 0-1.264-1.041 34.699 34.699 0 0 0-3.2.469 1.157 1.157 0 0 0 .215 2.3l-.008-.031h.223a33.2 33.2 0 0 1 3-.438 1.158 1.158 0 0 0 1.034-1.259z" class="cls-1" data-name="Path 10922" transform="translate(-143.738 -17.428)"/>
            </g>
        </g>
        <g id="Group_5848" data-name="Group 5848" transform="translate(6.45 20.514)">
            <g id="Group_5847" data-name="Group 5847">
                <path id="Path_10923" d="M37.451 77.871a1.159 1.159 0 0 0-1.636.1 33.861 33.861 0 0 0-2.013 2.535 1.152 1.152 0 0 0 .93 1.828v.015a1.152 1.152 0 0 0 .937-.476 33.426 33.426 0 0 1 1.882-2.366 1.159 1.159 0 0 0-.1-1.636z" class="cls-1" data-name="Path 10923" transform="translate(-33.582 -77.58)"/>
            </g>
        </g>
        <g id="Group_5850" data-name="Group 5850" transform="translate(36.277 8.818)">
            <g id="Group_5849" data-name="Group 5849">
                <path id="Path_10924" d="M193.316 17.025a34.587 34.587 0 0 0-3.219-.338 1.154 1.154 0 0 0-.138 2.3c1.014.077 2.021.184 3.012.338h.177a1.156 1.156 0 0 0 .169-2.3z" class="cls-1" data-name="Path 10924" transform="translate(-188.873 -16.685)"/>
            </g>
        </g>
        <g id="Group_5852" data-name="Group 5852" transform="translate(12.315 14.845)">
            <g id="Group_5851" data-name="Group 5851">
                <path id="Path_10925" d="M68.665 48.533a1.153 1.153 0 0 0-1.551-.286 37.22 37.22 0 0 0-2.581 1.951 1.154 1.154 0 1 0 1.475 1.775 31.372 31.372 0 0 1 2.412-1.829 1.152 1.152 0 0 0 .245-1.611z" class="cls-1" data-name="Path 10925" transform="translate(-64.116 -48.064)"/>
            </g>
        </g>
        <g id="Group_5855" data-name="Group 5855" transform="translate(19.57 10.835)">
            <g id="Group_5854" data-name="Group 5854">
                <g id="Group_5853" data-name="Group 5853">
                    <path id="Path_10926" d="M107.827 45.653z" class="cls-1" data-name="Path 10926" transform="translate(-106.669 -42.106)"/>
                    <path id="Path_10927" d="M107.115 28.037a1.152 1.152 0 0 0-1.575-.75 28.792 28.792 0 0 0-2.981 1.252 1.147 1.147 0 1 0 .96 2.082c.907-.43 1.844-.822 2.789-1.168a1.152 1.152 0 0 0 .807-1.416z" class="cls-1" data-name="Path 10927" transform="translate(-101.892 -27.189)"/>
                </g>
            </g>
        </g>
        <g id="Group_5857" data-name="Group 5857" transform="translate(33.29 77.264)">
            <g id="Group_5856" data-name="Group 5856">
                <path id="Path_10928" d="M178.758 374.126a1.155 1.155 0 0 0-1.225-1.079 28.435 28.435 0 0 1-3.027.069 1.153 1.153 0 0 0-.061 2.3h.976c.768 0 1.537 0 2.259-.069a1.155 1.155 0 0 0 1.078-1.221z" class="cls-1" data-name="Path 10928" transform="translate(-173.322 -373.044)"/>
            </g>
        </g>
        <g id="Group_5859" data-name="Group 5859" transform="translate(66.542 51.612)">
            <g id="Group_5858" data-name="Group 5858">
                <path id="Path_10929" d="M348.794 239.525a1.153 1.153 0 0 0-1.4.834 31.37 31.37 0 0 1-.884 2.889 1.15 1.15 0 0 0 2.173.756c.361-1.014.676-2.051.945-3.073a1.153 1.153 0 0 0-.834-1.406z" class="cls-1" data-name="Path 10929" transform="translate(-346.447 -239.489)"/>
            </g>
        </g>
        <g id="Group_5861" data-name="Group 5861" transform="translate(67.436 34.468)">
            <g id="Group_5860" data-name="Group 5860">
                <path id="Path_10930" d="M354.024 154.215c-.177-1.06-.4-2.128-.668-3.165a1.152 1.152 0 0 0-2.228.584c.254.968.461 1.967.63 2.958a1.152 1.152 0 0 0 1.122.945h.192a1.152 1.152 0 0 0 .952-1.322z" class="cls-1" data-name="Path 10930" transform="translate(-351.099 -150.23)"/>
            </g>
        </g>
        <g id="Group_5863" data-name="Group 5863" transform="translate(8.216 6.948)">
            <g id="Group_5862" data-name="Group 5862">
                <path id="Path_10931" d="M109.817 25.225a1.117 1.117 0 0 0-.219-.317l-2.036-2.12a1.114 1.114 0 0 0-1.114-.277l-3.672 1.114-4.3-4.564 9.657-5.378a1.122 1.122 0 0 0 .33-1.805l-2.712-2.712a1.122 1.122 0 0 0-1.114-.261L92.4 12.608l-4.122-4.371a3.726 3.726 0 0 0-4.241-1.007h-.069A4.533 4.533 0 0 0 81.5 9.7a4.152 4.152 0 0 0-.246.907l-.469-.161a1.154 1.154 0 0 0-.707 2.2c.592.192 1.183.407 1.775.63a4.424 4.424 0 0 0 .622.768l4.341 4.118-1.245 4.11a27.074 27.074 0 1 0 5.729 5.509l1.967-3.549 4.564 4.3-1.1 3.634A1.114 1.114 0 0 0 97 33.305s2.251 2.228 2.3 2.3a1.114 1.114 0 0 0 1.523-.405l.014-.025 3-5.509 5.424-2.958a1.122 1.122 0 0 0 .556-1.483zm-57.364 1.519a24.67 24.67 0 0 1 17.463-7.222q.768 0 1.537.046c4.356 4.018 3.073 7.683.154 10.986a53.928 53.928 0 0 1-5.532 5.1C63.24 38.069 60.6 40.32 59.6 42.571c-1.183 2.674-.315 5.094 4.464 7.206 2.389 1.06 3.688 1.882 4.195 2.5a.123.123 0 0 0 .022.021l-.053.017a9.548 9.548 0 0 1-3.626.622c-5.793.246-9.919-3.457-13.122-6.323-2.3-2.051-4.218-3.757-6.208-3.772a24.67 24.67 0 0 1 7.181-16.098zM94.7 44.246h.008a24.77 24.77 0 0 1-17.063 23.532 8.06 8.06 0 0 1 .945-5.232 19.047 19.047 0 0 1 4.61-5.071c7.091-5.916 7.491-9.219 7.8-11.762.192-1.606.338-2.8 3.511-4.548a25.034 25.034 0 0 1 .189 3.081zm-1.429-8.313a24.511 24.511 0 0 1 .845 2.958c-4.832 2.459-5.048 4.21-5.34 6.6-.261 2.151-.6 4.963-7.007 10.31a21.014 21.014 0 0 0-5.147 5.708 10.188 10.188 0 0 0-1.152 6.861 24.754 24.754 0 0 1-30.254-23.256c1.222 0 2.8 1.452 4.748 3.181 3.519 3.142 8.021 7.153 14.728 6.915a11.524 11.524 0 0 0 4.61-.876 2.3 2.3 0 0 0 1.275-1.444 2.2 2.2 0 0 0-.553-2.005C69.3 50 67.719 48.955 65 47.741c-3.25-1.437-3.957-2.835-3.319-4.264.768-1.8 3.242-3.841 5.87-6.146a55.926 55.926 0 0 0 5.77-5.378c3.211-3.657 4.863-7.644 1.6-12.008a24.584 24.584 0 0 1 9.988 4.541l-1.767 5.831a1.122 1.122 0 0 0 .269 1.137s2.866 2.843 2.958 2.9a1.114 1.114 0 0 0 1.523-.405l.014-.025 2.236-4.041a24.7 24.7 0 0 1 3.13 6.05zm10.3-8.582l-.991.492a1.106 1.106 0 0 0-.507.515l-.492 1-1.913 3.457-.561-.615 1.114-3.68a1.114 1.114 0 0 0-.361-1.183l-6.06-5.71a1.114 1.114 0 0 0-1.575.014l-.03.032c-.077.085-5.532 9.911-5.532 9.911l-1.191-1.191 3.718-12.254a1.114 1.114 0 0 0-.361-1.191l-4.825-4.541a1.6 1.6 0 0 1-.438-1.844 2.413 2.413 0 0 1 1.252-1.245h.038a1.6 1.6 0 0 1 1.8.461l4.61 4.871a1.114 1.114 0 0 0 1.137.307l12.297-3.709 1.191 1.191L96.13 17.8a1.114 1.114 0 0 0-.444 1.511l.014.025c.046.085 5.923 6.338 5.923 6.338a1.114 1.114 0 0 0 1.137.3l3.7-1.114.576.576z" class="cls-1" data-name="Path 10931" transform="translate(-42.775 -6.948)"/>
            </g>
        </g>
        <g id="Group_5865" data-name="Group 5865" transform="translate(62.667 59.588)">
            <g id="Group_5864" data-name="Group 5864">
                <path id="Path_10932" d="M329.649 281.173l-.051-.028a1.152 1.152 0 0 0-1.537.453 30.211 30.211 0 0 1-1.583 2.581 1.155 1.155 0 1 0 1.89 1.329c.6-.891 1.168-1.821 1.69-2.758a1.152 1.152 0 0 0-.409-1.577z" class="cls-1" data-name="Path 10932" transform="translate(-326.269 -281.013)"/>
            </g>
        </g>
        <g id="Group_5867" data-name="Group 5867" transform="translate(68.381 42.924)">
            <g id="Group_5866" data-name="Group 5866">
                <path id="Path_10933" d="M357.33 194.256a1.153 1.153 0 0 0-1.168 1.136v.178c0 1.006-.046 2.021-.138 3.027a1.152 1.152 0 0 0 1.043 1.252h.109a1.152 1.152 0 0 0 1.16-1.068c.1-1.068.146-2.151.146-3.227v-.154a1.152 1.152 0 0 0-1.152-1.144z" class="cls-1" data-name="Path 10933" transform="translate(-356.019 -194.255)"/>
            </g>
        </g>
        <g id="Group_5869" data-name="Group 5869" transform="translate(24.741 76.018)">
            <g id="Group_5868" data-name="Group 5868">
                <path id="Path_10934" d="M133.3 367.3a23.81 23.81 0 0 1-2.95-.676 1.152 1.152 0 1 0-.765 2.174 1.165 1.165 0 0 0 .135.038c1.03.292 2.09.546 3.15.768h.215a1.158 1.158 0 0 0 .215-2.305z" class="cls-1" data-name="Path 10934" transform="translate(-128.811 -366.555)"/>
            </g>
        </g>
        <g id="Group_5871" data-name="Group 5871" transform="translate(41.847 75.655)">
            <g id="Group_5870" data-name="Group 5870">
                <path id="Path_10935" d="M223.086 365.42a1.153 1.153 0 0 0-1.4-.71v.031a22.891 22.891 0 0 1-2.912.768 1.154 1.154 0 1 0 .507 2.251c1.045-.238 2.1-.53 3.119-.86a1.153 1.153 0 0 0 .686-1.48z" class="cls-1" data-name="Path 10935" transform="translate(-217.876 -364.665)"/>
            </g>
        </g>
        <g id="Group_5873" data-name="Group 5873" transform="translate(16.902 72.651)">
            <g id="Group_5872" data-name="Group 5872">
                <path id="Path_10936" d="M92.416 350.624a54.982 54.982 0 0 1-2.681-1.437 1.154 1.154 0 0 0-1.168 1.99 46.71 46.71 0 0 0 2.866 1.537 1.155 1.155 0 1 0 .983-2.09z" class="cls-1" data-name="Path 10936" transform="translate(-87.997 -349.029)"/>
            </g>
        </g>
        <g id="Group_5875" data-name="Group 5875" transform="translate(56.998 66.532)">
            <g id="Group_5874" data-name="Group 5874">
                <path id="Path_10937" d="M300.911 317.472a1.152 1.152 0 0 0-1.609.053h.008a28.011 28.011 0 0 1-2.167 2.113 1.154 1.154 0 0 0 1.537 1.721c.768-.715 1.583-1.475 2.3-2.259a1.152 1.152 0 0 0-.069-1.628z" class="cls-1" data-name="Path 10937" transform="translate(-296.758 -317.171)"/>
            </g>
        </g>
        <g id="Group_5877" data-name="Group 5877" transform="translate(49.912 72.021)">
            <g id="Group_5876" data-name="Group 5876">
                <path id="Path_10938" d="M264.742 346.307a1.153 1.153 0 0 0-1.581-.4l-.054.035v-.031a48.867 48.867 0 0 1-2.62 1.537 1.153 1.153 0 0 0 1.053 2.051 35.09 35.09 0 0 0 2.8-1.613 1.152 1.152 0 0 0 .402-1.579z" class="cls-1" data-name="Path 10938" transform="translate(-259.861 -345.746)"/>
            </g>
        </g>
    </g>
</svg>
