<svg xmlns="http://www.w3.org/2000/svg" id="Page-1" width="57.709" height="57.709" viewBox="0 0 57.709 57.709">
    <defs>
        <style>
            .cls-1{fill:#00bce3}
        </style>
    </defs>
    <g id="_007---IP-Address" data-name="007---IP-Address">
        <path id="Shape" d="M54.9 49.472H2.962A.962.962 0 0 1 2 48.511V13.885A2.889 2.889 0 0 1 4.885 11H14.3a.962.962 0 1 1 0 1.924H4.885a.963.963 0 0 0-.962.962v33.663h50.015V13.885a.963.963 0 0 0-.962-.962H43.57a.962.962 0 0 1 0-1.924h9.407a2.889 2.889 0 0 1 2.885 2.885v34.627a.962.962 0 0 1-.962.961z" class="cls-1" transform="translate(-.076 -.42)"/>
        <path id="Shape-2" d="M51.205 49.625H6.962A.962.962 0 0 1 6 48.663V16.924A1.926 1.926 0 0 1 7.924 15h5.8a.962.962 0 1 1 0 1.924h-5.8V47.7h42.32V16.924h-5.8a.962.962 0 1 1 0-1.924h5.8a1.926 1.926 0 0 1 1.924 1.924v31.74a.962.962 0 0 1-.963.961z" class="cls-1" data-name="Shape" transform="translate(-.229 -.573)"/>
        <path id="Shape-3" d="M52.9 59.58H4.809A4.815 4.815 0 0 1 0 54.771v-3.847A1.926 1.926 0 0 1 1.924 49h53.861a1.926 1.926 0 0 1 1.924 1.924v3.847A4.815 4.815 0 0 1 52.9 59.58zM1.924 50.924v3.847a2.889 2.889 0 0 0 2.885 2.885H52.9a2.889 2.889 0 0 0 2.885-2.885v-3.847z" class="cls-1" data-name="Shape" transform="translate(0 -1.871)"/>
        <path id="Shape-4" d="M36.085 54.771h-13.01a2.871 2.871 0 0 1-2.581-1.595L19.1 50.392A.962.962 0 0 1 19.962 49H39.2a.962.962 0 0 1 .86 1.392l-1.392 2.784a2.871 2.871 0 0 1-2.581 1.595zm-14.567-3.847l.7 1.392a.958.958 0 0 0 .86.532h13.007a.958.958 0 0 0 .86-.532l.7-1.392z" class="cls-1" data-name="Shape" transform="translate(-.726 -1.871)"/>
        <path id="Shape-5" d="M12.5 54.924H.962a.962.962 0 1 1 0-1.924H12.5a.962.962 0 1 1 0 1.924z" class="cls-1" data-name="Shape" transform="translate(0 -2.024)"/>
        <path id="Shape-6" d="M17.924 54.924h-.962a.962.962 0 1 1 0-1.924h.962a.962.962 0 1 1 0 1.924z" class="cls-1" data-name="Shape" transform="translate(-.611 -2.024)"/>
        <path id="Shape-7" d="M58.5 54.924H46.962a.962.962 0 0 1 0-1.924H58.5a.962.962 0 0 1 0 1.924z" class="cls-1" data-name="Shape" transform="translate(-1.757 -2.024)"/>
        <path id="Shape-8" d="M42.924 54.924h-.962a.962.962 0 1 1 0-1.924h.962a.962.962 0 1 1 0 1.924z" class="cls-1" data-name="Shape" transform="translate(-1.566 -2.024)"/>
        <path id="Shape-9" d="M29.351 44.243a1.7 1.7 0 0 1-1.394-.729L16.2 26.007a.88.88 0 0 1-.087-.16A16.116 16.116 0 0 1 13 16.039 16.384 16.384 0 0 1 29.351 0h.007A16.337 16.337 0 0 1 45.7 16.285a16.123 16.123 0 0 1-3.111 9.563.943.943 0 0 1-.087.16L30.752 43.5a1.7 1.7 0 0 1-1.4.741zM17.918 25.119l11.433 17.02 11.441-17.032a.864.864 0 0 1 .123-.227 14.225 14.225 0 0 0 2.863-8.595A14.412 14.412 0 0 0 29.357 1.924h-.007a14.452 14.452 0 0 0-14.424 14.143 14.213 14.213 0 0 0 2.861 8.812.961.961 0 0 1 .131.239z" class="cls-1" data-name="Shape" transform="translate(-.496)"/>
        <path id="Shape-10" d="M24.962 25.389a.962.962 0 0 1-.962-.962V10.962a.962.962 0 1 1 1.924 0v13.465a.962.962 0 0 1-.962.962z" class="cls-1" data-name="Shape" transform="translate(-.917 -.382)"/>
        <path id="Shape-11" d="M27.733 25.924h-5.771a.962.962 0 1 1 0-1.924h5.771a.962.962 0 1 1 0 1.924z" class="cls-1" data-name="Shape" transform="translate(-.802 -.917)"/>
        <path id="Shape-12" d="M27.733 11.924h-5.771a.962.962 0 1 1 0-1.924h5.771a.962.962 0 1 1 0 1.924z" class="cls-1" data-name="Shape" transform="translate(-.802 -.382)"/>
        <path id="Shape-13" d="M31.962 25.389a.962.962 0 0 1-.962-.962V10.962a.962.962 0 1 1 1.924 0v13.465a.962.962 0 0 1-.962.962z" class="cls-1" data-name="Shape" transform="translate(-1.184 -.382)"/>
        <path id="Shape-14" d="M36.29 18.656h-4.328a.962.962 0 0 1-.962-.962v-6.732a.962.962 0 0 1 .962-.962h4.328a4.328 4.328 0 0 1 0 8.656zm-3.366-1.924h3.366a2.4 2.4 0 0 0 0-4.809h-3.366z" class="cls-1" data-name="Shape" transform="translate(-1.184 -.382)"/>
    </g>
</svg>
