<svg xmlns="http://www.w3.org/2000/svg" width="73.571" height="73.8" viewBox="0 0 73.571 73.8">
    <defs>
        <style>
            .cls-1{fill:#00bce3}
        </style>
    </defs>
    <g id="sports" transform="translate(-1 -1)">
        <path id="Path_2084" d="M52.833 51.567a8.691 8.691 0 0 0 1.542-3.05L73.12 62.851l1.451-1.9-19.852-15.177a8.7 8.7 0 0 0-2.859-6.1l-8.691-7.823 3.727-5.59L59.2 29.618a1.195 1.195 0 0 0 1.472-.862l1.194-4.777A1.194 1.194 0 0 0 61 22.531l-13.68-3.42a6.7 6.7 0 0 0-7.13 2.757l-10.53 15.79v-3.727a5.974 5.974 0 0 0 3.583-5.465v-2.388a5.974 5.974 0 0 0-3.583-5.465V2.194A1.194 1.194 0 0 0 28.466 1H2.194A1.194 1.194 0 0 0 1 2.194v35.825a1.194 1.194 0 0 0 1.194 1.194h26.272a1.164 1.164 0 0 0 .182-.037l-3.209 4.814H11.748a1.193 1.193 0 0 0-1.194 1.194v4.777a1.193 1.193 0 0 0 1.194 1.194H29.66a1.191 1.191 0 0 0 .971-.5l5.213-7.3 6.5 5.574-6.764 8.7a5.444 5.444 0 0 0 1.031 7.7L49.245 74.8l1.432-1.911-12.63-9.473a3.053 3.053 0 0 1-.578-4.318l7.464-9.6a1.193 1.193 0 0 0-.166-1.64l-8.36-7.158a1.191 1.191 0 0 0-1.747.213l-5.615 7.858h-16.1v-2.392h13.133a1.2 1.2 0 0 0 .994-.531l15.1-22.655a4.29 4.29 0 0 1 4.564-1.765l12.521 3.13-.609 2.435-11.958-3.262a1.2 1.2 0 0 0-1.308.49l-4.777 7.165a1.2 1.2 0 0 0 .195 1.55l9.459 8.513a6.307 6.307 0 0 1 .706 8.627l-7.91 9.887a1.2 1.2 0 0 0 .125 1.626l14.33 13.136 1.615-1.761-13.5-12.38 4.44-5.549 23.129 15.036 1.3-2L51.56 53.158zM30.854 26.078v2.388a3.583 3.583 0 1 1-7.165 0v-2.388a3.583 3.583 0 1 1 7.165 0zM8.165 3.388H22.5v2.389H8.165zm19.107 33.437H3.388V3.388h2.389v3.583a1.194 1.194 0 0 0 1.194 1.194h16.718a1.194 1.194 0 0 0 1.194-1.194V3.388h2.388v16.719a5.978 5.978 0 0 0-5.971 5.971v2.388a5.978 5.978 0 0 0 5.971 5.971z" class="cls-1" data-name="Path 2084"/>
        <path id="Path_2085" d="M1 45h13.136v2.388H1z" class="cls-1" data-name="Path 2085" transform="translate(0 8.544)"/>
        <path id="Path_2086" d="M8 49h13.136v2.388H8z" class="cls-1" data-name="Path 2086" transform="translate(1.359 9.32)"/>
        <path id="Path_2087" d="M2 53h2.388v2.388H2z" class="cls-1" data-name="Path 2087" transform="translate(.194 10.097)"/>
        <path id="Path_2088" d="M6 53h2.388v2.388H6z" class="cls-1" data-name="Path 2088" transform="translate(.971 10.097)"/>
        <path id="Path_2089" d="M10 53h17.913v2.388H10z" class="cls-1" data-name="Path 2089" transform="translate(1.748 10.097)"/>
        <path id="Path_2090" d="M24.107 13.971v-2.388h-2.944l-2.034-3.052a1.194 1.194 0 0 0-2.091.192l-2.485 5.8-2.485-5.8a1.193 1.193 0 0 0-1.941-.374l-3.233 3.234H5v2.388h2.388a1.189 1.189 0 0 0 .844-.35l2.336-2.336 2.888 6.739a1.194 1.194 0 0 0 2.195 0l2.714-6.333 1.166 1.748a1.2 1.2 0 0 0 .994.531z" class="cls-1" data-name="Path 2090" transform="translate(.777 1.359)"/>
        <path id="Path_2091" d="M5 19h10.748v2.388H5z" class="cls-1" data-name="Path 2091" transform="translate(.777 3.495)"/>
        <path id="Path_2092" d="M5 23h10.748v2.388H5z" class="cls-1" data-name="Path 2092" transform="translate(.777 4.272)"/>
        <path id="Path_2093" d="M5 27h10.748v2.388H5z" class="cls-1" data-name="Path 2093" transform="translate(.777 5.049)"/>
    </g>
</svg>
