<?xml version="1.0" encoding="iso-8859-1"?>
<!-- Generator: Adobe Illustrator 16.0.0, SVG Export Plug-In . SVG Version: 6.00 Build 0)  -->
<!DOCTYPE svg PUBLIC "-//W3C//DTD SVG 1.1//EN" "http://www.w3.org/Graphics/SVG/1.1/DTD/svg11.dtd">
<svg version="1.1" id="Capa_1" xmlns="http://www.w3.org/2000/svg" xmlns:xlink="http://www.w3.org/1999/xlink" x="0px" y="0px"
	 width="43.703px" height="43.703px" viewBox="0 0 43.703 43.703" style="enable-background:new 0 0 43.703 43.703;"
	 xml:space="preserve">
<g>
	<g>
		<path fill="#b2b5b5" d="M10.396,9.395c1.751,0,3.175-1.425,3.175-3.176s-1.424-3.175-3.175-3.175S7.221,4.468,7.221,6.219
			S8.646,9.395,10.396,9.395z M10.396,5.044c0.647,0,1.175,0.527,1.175,1.175c0,0.648-0.527,1.176-1.175,1.176
			S9.221,6.868,9.221,6.219C9.221,5.572,9.75,5.044,10.396,5.044z"/>
		<path fill="#b2b5b5" d="M9.11,11.258v7.1c0,0.553,0.447,1,1,1c0.553,0,1-0.447,1-1v-7.1c0-0.553-0.447-1-1-1
			C9.557,10.258,9.11,10.706,9.11,11.258z"/>
		<path fill="#b2b5b5" d="M13.64,10.335c-0.244-0.102-0.52-0.102-0.764,0c-0.245,0.102-0.439,0.296-0.541,0.541
			c-0.051,0.122-0.077,0.252-0.077,0.382v24.276c0,0.553,0.447,1,1,1s1-0.447,1-1V22.526c0.186-0.037,0.365-0.11,0.509-0.254
			l4.751-4.752c0.391-0.391,0.391-1.023,0-1.414l-5.552-5.554C13.875,10.459,13.763,10.386,13.64,10.335z M14.258,19.953v-6.279
			l3.139,3.14L14.258,19.953z"/>
		<path fill="#b2b5b5" d="M0.293,17.52l4.751,4.752c0.145,0.145,0.324,0.217,0.51,0.254v13.008c0,0.553,0.447,1,1,1c0.553,0,1-0.447,1-1V11.258
			c0-0.13-0.026-0.26-0.077-0.382c-0.102-0.245-0.296-0.439-0.541-0.541c-0.244-0.102-0.52-0.102-0.764,0
			c-0.123,0.051-0.234,0.124-0.326,0.217l-5.553,5.554C-0.098,16.497-0.098,17.129,0.293,17.52z M2.415,16.813l3.14-3.141v6.281
			L2.415,16.813z"/>
		<path fill="#b2b5b5" d="M30.736,14.725c-7.15,0-12.968,5.816-12.968,12.967c0,7.15,5.816,12.967,12.968,12.967c7.15,0,12.967-5.816,12.967-12.967
			C43.703,20.541,37.886,14.725,30.736,14.725z M31.736,38.608v-1.756c0-0.554-0.447-1-1-1c-0.554,0-1,0.446-1,1v1.756
			c-5.25-0.479-9.439-4.666-9.917-9.916h1.757c0.553,0,1-0.447,1-1s-0.447-1-1-1h-1.757c0.478-5.25,4.667-9.438,9.917-9.917v1.756
			c0,0.553,0.446,1,1,1c0.553,0,1-0.447,1-1v-1.756c5.25,0.478,9.438,4.666,9.916,9.917h-1.756c-0.554,0-1,0.447-1,1s0.446,1,1,1
			h1.756C41.174,33.942,36.986,38.13,31.736,38.608z"/>
		<path fill="#b2b5b5" d="M33.025,26.692h-1.289v-3.981c0-0.553-0.447-1-1-1c-0.554,0-1,0.447-1,1v4.981c0,0.553,0.446,1,1,1h2.289
			c0.553,0,1-0.447,1-1S33.578,26.692,33.025,26.692z"/>
	</g>
</g>
<g>
</g>
<g>
</g>
<g>
</g>
<g>
</g>
<g>
</g>
<g>
</g>
<g>
</g>
<g>
</g>
<g>
</g>
<g>
</g>
<g>
</g>
<g>
</g>
<g>
</g>
<g>
</g>
<g>
</g>
</svg>
