<svg xmlns="http://www.w3.org/2000/svg" width="81.571" height="81.824" viewBox="0 0 81.571 81.824">
    <defs>
        <style>
            .cls-1{fill:#00bce3}
        </style>
    </defs>
    <path id="XMLID_2024_" d="M43.442 55.692a1.812 1.812 0 0 1-1.813 1.808H41.2a1.812 1.812 0 1 1 0-3.625h.431a1.812 1.812 0 0 1 1.811 1.817zm12.665-1.812h1.546a1.812 1.812 0 1 1 0 3.625h-1.547a14.832 14.832 0 0 1-12.88 12.881v1.544a1.812 1.812 0 1 1-3.625 0v-1.545A14.833 14.833 0 0 1 26.721 57.5h-1.546a1.812 1.812 0 1 1 0-3.625h1.546A14.833 14.833 0 0 1 39.6 41v-1.547a1.812 1.812 0 1 1 3.625 0V41a14.833 14.833 0 0 1 12.881 12.879zm-6.762 1.812a1.812 1.812 0 0 1 1.812-1.812h1.288a11.207 11.207 0 0 0-9.219-9.219v1.289a1.812 1.812 0 1 1-3.625 0v-1.29a11.207 11.207 0 0 0-9.219 9.219h1.288a1.812 1.812 0 1 1 0 3.625h-1.288a11.207 11.207 0 0 0 9.218 9.219v-1.288a1.812 1.812 0 1 1 3.625 0v1.288a11.207 11.207 0 0 0 9.22-9.223h-1.288a1.812 1.812 0 0 1-1.813-1.808zM82.2 27.794a27.57 27.57 0 0 1-8.4 19.866 1.812 1.812 0 0 1-2.533-2.593 24.365 24.365 0 0 0 4.919-6.8h-8.6a1.812 1.812 0 1 1 0-3.625h10.001a24.246 24.246 0 0 0 0-13.7H62.235a48.831 48.831 0 0 1 .477 6.848c0 .637-.013 1.3-.039 1.956a1.812 1.812 0 0 1-3.622-.142c.024-.614.036-1.224.036-1.814a44.237 44.237 0 0 0-.53-6.848H43.226v2.268a1.812 1.812 0 0 1-3.625 0v-2.263H24.27a44.238 44.238 0 0 0-.53 6.848c0 .587.012 1.2.036 1.814a1.812 1.812 0 0 1-3.622.142 50.233 50.233 0 0 1-.039-1.956 48.862 48.862 0 0 1 .477-6.848H5.241a24.246 24.246 0 0 0 0 13.7h10.005a1.812 1.812 0 1 1 0 3.625h-8.6a24.368 24.368 0 0 0 4.919 6.8 1.813 1.813 0 0 1-2.533 2.594A27.762 27.762 0 0 1 28.423 0H54.4a27.826 27.826 0 0 1 27.8 27.794zM27.331 3.649A24.211 24.211 0 0 0 6.642 17.322h14.613a35.608 35.608 0 0 1 6.076-13.673zM39.6 3.625h-7.456C28.876 6.9 26.395 11.745 25 17.322h14.6V3.625zm18.223 13.7c-1.392-5.576-3.873-10.42-7.141-13.7h-7.456v13.7zm18.361 0A24.211 24.211 0 0 0 55.5 3.649a35.608 35.608 0 0 1 6.076 13.672zm-8.639 38.37a26.133 26.133 0 1 1-26.132-26.136 26.162 26.162 0 0 1 26.133 26.133zm-3.625 0A22.508 22.508 0 1 0 41.413 78.2a22.533 22.533 0 0 0 22.509-22.508z" class="cls-1" transform="translate(-.628)"/>
</svg>
